<svg xmlns="http://www.w3.org/2000/svg" data-name="Layer 1" width="717.67004" height="596.3292" viewBox="0 0 717.67004 596.3292" xmlns:xlink="http://www.w3.org/1999/xlink"><rect x="204.85476" width="326" height="594" rx="58.72835" fill="#3f3d56"/><path d="M766.5202,210.56773v476.54a53.29169,53.29169,0,0,1-53.23,53.23h-208.54a53.29169,53.29169,0,0,1-53.23-53.23v-476.54a53.29173,53.29173,0,0,1,53.23-53.23h27.27v9.42a16.08092,16.08092,0,0,0,16.08,16.08h121.84a16.08092,16.08092,0,0,0,16.08-16.08v-9.42h27.27A53.29174,53.29174,0,0,1,766.5202,210.56773Z" transform="translate(-241.16498 -151.8354)" fill="#fff"/><path d="M444.51974,272.33541a4.0046,4.0046,0,0,1-4-4v-8a4,4,0,0,1,8,0v8A4.00458,4.00458,0,0,1,444.51974,272.33541Z" transform="translate(-241.16498 -151.8354)" fill="#3f3d56"/><path d="M444.51974,313.35689a4.00458,4.00458,0,0,1-4-4V287.33541a4,4,0,0,1,8,0v22.02148A4.00458,4.00458,0,0,1,444.51974,313.35689Z" transform="translate(-241.16498 -151.8354)" fill="#3f3d56"/><path d="M444.51974,346.33541a4.00458,4.00458,0,0,1-4-4V320.31392a4,4,0,0,1,8,0v22.02149A4.00459,4.00459,0,0,1,444.51974,346.33541Z" transform="translate(-241.16498 -151.8354)" fill="#3f3d56"/><path d="M772.51974,328.3354a4.00458,4.00458,0,0,1-4-4V270.602a4,4,0,0,1,8,0v53.7334A4.00459,4.00459,0,0,1,772.51974,328.3354Z" transform="translate(-241.16498 -151.8354)" fill="#3f3d56"/><path d="M617.61227,170.1812h-31a2.5,2.5,0,0,1,0-5h31a2.5,2.5,0,0,1,0,5Z" transform="translate(-241.16498 -151.8354)" fill="#fff"/><circle cx="392.44729" cy="15.8458" r="2" fill="#fff"/><path d="M873.917,720.85262a3.56386,3.56386,0,0,0,2.52393-6.20136c-.09328-.3563-.1602-.61213-.25341-.96849a9.57474,9.57474,0,0,1,17.74853-.33644c4.31772,9.84578,9.88142,20.028,7.26661,30.94266,17.594-38.22733,11.03667-85.50774-15.81028-117.80022-7.37364-3.97084-13.38731-11.09311-15.01445-19.41415,3.642,1.19546,8.14-1.80048,5.37412-5.59841-1.197-1.45023-2.40544-2.88879-3.60237-4.33908,13.65013-14.81753,30.30051,8.10754,15.31045,28.074a114.26474,114.26474,0,0,1,13.024,19.95056,48.04337,48.04337,0,0,1,2.65565-22.34156c2.68222-6.64885,7.77474-12.27553,12.25158-18.044,5.443-7.0286,16.81306-3.91814,17.6387,4.92756-5.06867,1.71964-5.65929,9.07055.16646,10.02035-1.36654,16.4835-11.98172,31.72083-26.73177,39.08466a114.70965,114.70965,0,0,1,6.72483,47.88518c2.43494-19.011,22.77131-23.8125,36.94436-31.49419a5.54912,5.54912,0,0,1,8.516,5.53977,32.05053,32.05053,0,0,0-5.58948,3.01718,4.84411,4.84411,0,0,0,2.33454,8.82109c-7.01111,17.83934-25.46154,29.94947-44.52854,30.06385a117.92916,117.92916,0,0,1-7.70134,23.201l-28.29843.26948c-.10449-.31345-.19885-.63723-.29316-.95078a32.15326,32.15326,0,0,0,7.82585-.5411c-7.00816-8.139-12.40748-12.27407-8.48327-23.76707Z" transform="translate(-241.16498 -151.8354)" fill="#f2f2f2"/><path d="M326.16179,720.85262a3.56386,3.56386,0,0,1-2.52393-6.20136c.09328-.3563.1602-.61213.25341-.96849a9.57474,9.57474,0,0,0-17.74853-.33644c-4.31772,9.84578-9.88142,20.028-7.26661,30.94266-17.594-38.22733-11.03667-85.50774,15.81028-117.80022,7.37364-3.97084,13.38731-11.09311,15.01445-19.41415-3.642,1.19546-8.14-1.80048-5.37412-5.59841,1.19705-1.45023,2.40544-2.88879,3.60237-4.33908-13.65013-14.81753-30.30051,8.10754-15.31045,28.074a114.26474,114.26474,0,0,0-13.024,19.95056,48.04337,48.04337,0,0,0-2.65565-22.34156c-2.68222-6.64885-7.77474-12.27553-12.25158-18.044-5.443-7.0286-16.81306-3.91814-17.6387,4.92756,5.06867,1.71964,5.65929,9.07055-.16646,10.02035,1.36654,16.4835,11.98172,31.72083,26.73177,39.08466a114.70965,114.70965,0,0,0-6.72483,47.88518c-2.43494-19.011-22.77131-23.8125-36.94436-31.49419a5.54912,5.54912,0,0,0-8.516,5.53977,32.05053,32.05053,0,0,1,5.58948,3.01718,4.84411,4.84411,0,0,1-2.33454,8.82109c7.01111,17.83934,25.46154,29.94947,44.52854,30.06385a117.92916,117.92916,0,0,0,7.70134,23.201l28.29843.26948c.10449-.31345.19885-.63723.29316-.95078a32.15326,32.15326,0,0,1-7.82585-.5411c7.00816-8.139,12.40748-12.27407,8.48327-23.76707Z" transform="translate(-241.16498 -151.8354)" fill="#f2f2f2"/><path d="M520.10563,180.90845h-27a5,5,0,0,1,0-10h27a5,5,0,0,1,0,10Z" transform="translate(-241.16498 -151.8354)" fill="#e6e6e6"/><circle cx="455.94066" cy="24.07305" r="4.5" fill="#e6e6e6"/><circle cx="469.94066" cy="24.07305" r="4.5" fill="#e6e6e6"/><circle cx="483.94066" cy="24.07305" r="4.5" fill="#e6e6e6"/><path d="M693.95935,250.79253h-169.7a12.41709,12.41709,0,0,0-12.4,12.4v110.31a12.41711,12.41711,0,0,0,12.4,12.4h169.7a12.41069,12.41069,0,0,0,12.4-12.4v-110.31A12.41068,12.41068,0,0,0,693.95935,250.79253Z" transform="translate(-241.16498 -151.8354)" fill="#f2f2f2"/><path d="M640.83209,297.8843a791.404,791.404,0,0,1-50.68162,78.41976H563.53819q26.1465-31.85316,52.33162-63.70633c5.008-6.11445,10.443-12.52,17.955-15.00452Z" transform="translate(-241.16498 -151.8354)" fill="#3f3d56"/><path d="M605.46563,293.53629c-2.77585,2.8922-5.43512,5.90085-7.93907,9.02608-5.51273,6.63847-10.94773,13.33523-16.40217,20.01255-3.39689,4.15383-6.79379,8.30777-10.15182,12.46172a24.78863,24.78863,0,0,1-3.02808-2.29046A27.16074,27.16074,0,0,1,602.651,290.97405,25.03515,25.03515,0,0,1,605.46563,293.53629Z" transform="translate(-241.16498 -151.8354)" fill="#e95316"/><path d="M706.35938,290.3825v4.03l-1.8-.66-25.33-9.26c-8.25-3.01-16.48-6.45-25-8.62a39.4016,39.4016,0,0,0-22.64.29,51.94969,51.94969,0,0,0-17.64,10.95c-2.25,2.08-4.43,4.21-6.54,6.42-.69.73-1.38,1.46-2.06,2.19-2.04,2.22-4.01,4.49-5.88,6.84-5.51,6.64-10.95,13.34-16.4,20.01-3.4,4.16-6.8,8.31-10.16,12.46q-16.83,20.595-33.46,41.27a19.53674,19.53674,0,0,1-4.43-.56q16.965-21.075,34.09-42.04.39-.48.78-.96c1.34-1.67,2.71-3.35,4.07-5.02q8.535-10.455,17.08-20.89c4.14-5.06,8.25-10.14,12.71-14.94.27-.31.55-.61.84-.92.43-.46.86-.91,1.3-1.38,9.69-10.01,21.78-18.86,36.26-19.1,8.52-.13,16.75,2.57,24.67,5.42005,8.53,3.09,17.03,6.23,25.55,9.35Z" transform="translate(-241.16498 -151.8354)" fill="#3f3d56"/><path d="M710.3495,629.45363H507.6909a12.4134,12.4134,0,0,1-12.39918-12.39918V589.7417a12.4134,12.4134,0,0,1,12.39918-12.39918H710.3495a12.4134,12.4134,0,0,1,12.39918,12.39918v27.31275A12.4134,12.4134,0,0,1,710.3495,629.45363Z" transform="translate(-241.16498 -151.8354)" fill="#f2f2f2"/><path d="M710.3495,489.45363H507.6909a12.4134,12.4134,0,0,1-12.39918-12.39918V449.7417a12.4134,12.4134,0,0,1,12.39918-12.39918H710.3495a12.4134,12.4134,0,0,1,12.39918,12.39918v27.31275A12.4134,12.4134,0,0,1,710.3495,489.45363Z" transform="translate(-241.16498 -151.8354)" fill="#f2f2f2"/><path d="M710.3495,559.45363H507.6909a12.4134,12.4134,0,0,1-12.39918-12.39918V519.7417a12.4134,12.4134,0,0,1,12.39918-12.39918H710.3495a12.4134,12.4134,0,0,1,12.39918,12.39918v27.31275A12.4134,12.4134,0,0,1,710.3495,559.45363Z" transform="translate(-241.16498 -151.8354)" fill="#f2f2f2"/><path d="M633.6415,598.72353H573.92982a2.67117,2.67117,0,0,1,0-5.34234H633.6415a2.67117,2.67117,0,0,1,0,5.34234Z" transform="translate(-241.16498 -151.8354)" fill="#fff"/><path d="M691.07162,613.415H573.262a2.67117,2.67117,0,0,1,0-5.34234h117.8096a2.67117,2.67117,0,0,1,0,5.34234Z" transform="translate(-241.16498 -151.8354)" fill="#fff"/><circle cx="301.04208" cy="451.56268" r="17.90945" fill="#fff"/><path d="M538.21638,627.58947a7.74428,7.74428,0,0,0-10.20256,3.54711,7.43134,7.43134,0,0,0-.43951,1.14687l-26.96921,1.61166-3.997,13.97247,36.7058-6.20206a7.7228,7.7228,0,0,0,8.48718-4.10633A7.39069,7.39069,0,0,0,538.4,627.676Q538.30879,627.63146,538.21638,627.58947Z" transform="translate(-241.16498 -151.8354)" fill="#ffb6b6"/><path d="M478.68735,558.66975l0,0a13.37259,13.37259,0,0,0-18.04487,9.16224l-7.41461,29.9431,1.39472,52.38373s38.702,7.42638,45.19914,2.65273,5.88706-8.32722,6.4971-4.77365,3.39869,5.0447,3.43741,3.631.35417-1.17209,1.97323-1.59791,8.76491-3.05958,8.76491-3.05958l.32-14.93516s-11.81354-4.47869-14.67963-3.14244.61,3.55357-2.86608,1.33624-3.856-9.21572-4.45033-2.90852-2.3343,7.48153-4.94046,4.677-14.68055-1.01308-14.68055-1.01308l7.68342-58.22987A13.37258,13.37258,0,0,0,478.68735,558.66975Z" transform="translate(-241.16498 -151.8354)" fill="#e95316"/><polygon points="498.157 562.178 498.564 551.148 456.212 544.329 455.612 560.608 498.157 562.178" fill="#ffb6b6"/><path d="M731.63407,717.33423l-.40158-17.66077,7.55.27858,12.18888-16.32676a4.71924,4.71924,0,0,1,8.498,2.997l-.7741,20.97961-7.60155,3.34059,7.416,1.68749-.29187,7.91015Z" transform="translate(-241.16498 -151.8354)" fill="#2f2e41"/><path d="M500.9626,739.30782,635.10573,723.7091s57.92747,3.34588,71.51863-5.49564l14.33237-1.80941.7768-21.05266s-8.76425.06463-13.80315-2.28315-1.5369-5.2206-6.34117-2.39583-4.29677,3.16449-8.01127,1.86626-174.05-8.26107-174.05-8.26107Z" transform="translate(-241.16498 -151.8354)" fill="#2f2e41"/><polygon points="436.563 578.337 444.363 570.527 417.953 536.724 406.441 548.25 436.563 578.337" fill="#ffb6b6"/><path d="M669.83324,727.37831l11.71713-13.22018,5.34542,5.33917,20.03985-3.67914a4.71923,4.71923,0,0,1,4.19152,7.97679l-14.83624,14.8536-7.84469-2.721,4.289,6.28091-5.59385,5.6004Z" transform="translate(-241.16498 -151.8354)" fill="#2f2e41"/><path d="M448.03937,665.84252l1.33359,30.99956c1.56994,36.49347,41.75932,58.58065,72.92311,39.52662q.86156-.52677,1.72887-1.09132s11.81428-3.17271,11.45565-8.19723,2.52757-7.4699,5.08175-6.09972S576.55846,674.89,576.55846,674.89s69.48152,34.65878,84.80968,42.8177l16.17348-4.40663s6.08708,2.87491,3.89443-1.283-2.58585-2.16655-3.25951-6.69673-2.39688-10.14673-3.44173-9.91051-85.957-59.1949-85.957-59.1949-13.83321-14-30.9928-4.75634c-.3574,1.35782-.05185,1.40513-.05185,1.40513l-56.68436,46.18863-8.00942-15.21084Z" transform="translate(-241.16498 -151.8354)" fill="#2f2e41"/><path d="M486.13806,551.93967l-24.30372-11.39046-7.2761,12.6606s-19.54183,27.88665-19.8253,48.00476,3.18465,26.10071,3.18465,26.10071-8.42568,6.29921-4.21284,10.14961,13.53954,5.51181,6.37619,7.1811-5.348,18.56858,2.652,21.56858,50.96418,2.97375,50.96418,2.97375a7.65139,7.65139,0,0,1,1.88976-7.53446c3.33071-3.33858,6.33071-.9429,3.33071-6.14074s-8-2.19784-4-9.19784,3.99854-9.09184,3.99854-9.09184,8.15437-15.51893-4.12807-32.35468c-.74869-1.02624-.11917-1.06581-.11917-1.06581l-9.918-33.2357Z" transform="translate(-241.16498 -151.8354)" fill="#e95316"/><path d="M446.97141,504.04638c.20559,5.13373-3.02967,12.407-4.6229,16.79273-1.70331,4.6889,5.67924,10.91292,10.40462,12.27588a6.98917,6.98917,0,0,1,2.28864-4.19665,11.96706,11.96706,0,0,0-.08724,4.70808l39.94785,9.09437c7.18664-8.32238,14.41277-20.28686,12.83655-34.71671a14.03973,14.03973,0,0,0-6.761-14.00008l-20.1955-11.93054c-8.59021-1.95561-19.408-3.13636-25.61265,2.17895A24.57545,24.57545,0,0,0,446.97141,504.04638Z" transform="translate(-241.16498 -151.8354)" fill="#2f2e41"/><circle cx="241.51391" cy="363.48857" r="23" fill="#ffb6b6"/><path d="M455.73424,503.03633l-1.10988,4.87526,19.40355,4.41734a7.15592,7.15592,0,0,1,2.38608-5.21032,12.19175,12.19175,0,0,0,.13928,5.78523c10.46445,5.872,19.89624,7.95233,28.35369,6.4549a4.43086,4.43086,0,0,0,5.30385-3.33675v0c3.40288-14.94742-5.51208-30.22473-20.38619-33.93493a27.99693,27.99693,0,0,0-34.09038,20.94929Z" transform="translate(-241.16498 -151.8354)" fill="#2f2e41"/><path d="M467.07875,470.87084c2.55851-.55537,5.26612-.42114,7.57949-2.15411l-1.51712,3.48248a17.626,17.626,0,0,1,12.58531,1.257,6.7302,6.7302,0,0,1,2.8492,2.41205,4.95656,4.95656,0,0,1,.37479,4.26923,4.64131,4.64131,0,0,1-2.71808,2.58135,8.96267,8.96267,0,0,1-3.32585.34819q-7.08317-.165-14.16625-.33012a10.59127,10.59127,0,0,1-5.22462-1.01528,5.21975,5.21975,0,0,1-2.42395-5.18324C461.54208,473.37264,464.52026,471.42614,467.07875,470.87084Z" transform="translate(-241.16498 -151.8354)" fill="#2f2e41"/><path d="M591.84361,651.13108a.98062.98062,0,0,0-.18816-.17287,2.01234,2.01234,0,0,0-.61614-.48219l-1.6832-.90095-11.17325-12.4049a2.80646,2.80646,0,0,0-2.09816-.2007l-.02874.0087-4.78642,1.48028-4.11644,1.27747-5.75023,1.78243L522.23673,653.646l-25.7448,7.97084a2.785,2.785,0,0,0-1.8295,3.448,2.89846,2.89846,0,0,0,.58784,1.04447l.81928.91173,1.71831,1.91427,3.98114,8.25041,1.10458,1.23285a2.775,2.775,0,0,0,2.86591.80414L590.5541,655.638a2.82416,2.82416,0,0,0,1.28951-4.50691Z" transform="translate(-241.16498 -151.8354)" fill="#ccc"/><path d="M586.80812,528.4257l-1.64243.2662a1.72823,1.72823,0,0,0-1.11942.69471l-.72375,1.01191-6.5272,16.32176a1.72814,1.72814,0,0,0-.29667,1.28843l.7647,4.65037-2.89028,83.00559a1.74786,1.74786,0,0,0,.64654,1.08405l12.67291,16.95222.29589.23506.63823.49974a1.75568,1.75568,0,0,0,1.14665.36459l1.077-.05133a1.73016,1.73016,0,0,0,1.26549-.64526,1.70389,1.70389,0,0,0,.35943-1.36986L588.7987,529.8458a1.72477,1.72477,0,0,0-1.98213-1.42151Z" transform="translate(-241.16498 -151.8354)" fill="#ccc"/><polygon points="342.893 383.04 337.111 400.653 334.874 471.007 343.874 479.007 342.893 383.04" fill="#e95316"/><path d="M539.34471,642.192a7.74428,7.74428,0,0,0-10.20256,3.54712,7.43055,7.43055,0,0,0-.43951,1.14687l-26.96922,1.61166-3.997,13.97246,36.70579-6.20206a7.7228,7.7228,0,0,0,8.48719-4.10633,7.3907,7.3907,0,0,0-3.401-9.88321Q539.43712,642.234,539.34471,642.192Z" transform="translate(-241.16498 -151.8354)" fill="#ffb6b6"/><path d="M479.81568,573.27228l0,0a13.37258,13.37258,0,0,0-18.04487,9.16225l-7.41461,29.94309,1.39471,52.38373s38.70206,7.42639,45.19915,2.65274,5.88706-8.32722,6.4971-4.77365,3.39869,5.04469,3.43741,3.631.35416-1.1721,1.97323-1.59792,8.76491-3.05957,8.76491-3.05957l.32-14.93517s-11.81354-4.47868-14.67963-3.14244.61,3.55357-2.86608,1.33624-3.856-9.21572-4.45033-2.90851-2.3343,7.48152-4.94046,4.677-14.68055-1.01309-14.68055-1.01309l7.68342-58.22986A13.3726,13.3726,0,0,0,479.81568,573.27228Z" transform="translate(-241.16498 -151.8354)" fill="#e95316"/><path d="M241.165,746.9746a1.18647,1.18647,0,0,0,1.19006,1.19h715.29a1.19,1.19,0,0,0,0-2.38H242.355A1.18651,1.18651,0,0,0,241.165,746.9746Z" transform="translate(-241.16498 -151.8354)" fill="#ccc"/><path d="M872.3495,489.45363H669.6909a12.4134,12.4134,0,0,1-12.39918-12.39918V449.7417a12.4134,12.4134,0,0,1,12.39918-12.39918H872.3495a12.4134,12.4134,0,0,1,12.39918,12.39918v27.31275A12.4134,12.4134,0,0,1,872.3495,489.45363Z" transform="translate(-241.16498 -151.8354)" fill="#e6e6e6"/><path d="M795.6415,458.72353H735.92982a2.67117,2.67117,0,1,1,0-5.34234H795.6415a2.67117,2.67117,0,1,1,0,5.34234Z" transform="translate(-241.16498 -151.8354)" fill="#fff"/><path d="M853.07162,473.415H735.262a2.67117,2.67117,0,1,1,0-5.34234h117.8096a2.67117,2.67117,0,0,1,0,5.34234Z" transform="translate(-241.16498 -151.8354)" fill="#fff"/><circle cx="463.04208" cy="311.56268" r="17.90945" fill="#fff"/><path d="M807.3495,559.45363H604.6909a12.4134,12.4134,0,0,1-12.39918-12.39918V519.7417a12.4134,12.4134,0,0,1,12.39918-12.39918H807.3495a12.4134,12.4134,0,0,1,12.39918,12.39918v27.31275A12.4134,12.4134,0,0,1,807.3495,559.45363Z" transform="translate(-241.16498 -151.8354)" fill="#e6e6e6"/><path d="M730.6415,528.72353H670.92982a2.67117,2.67117,0,1,1,0-5.34234H730.6415a2.67117,2.67117,0,0,1,0,5.34234Z" transform="translate(-241.16498 -151.8354)" fill="#fff"/><path d="M788.07162,543.415H670.262a2.67117,2.67117,0,0,1,0-5.34234h117.8096a2.67117,2.67117,0,0,1,0,5.34234Z" transform="translate(-241.16498 -151.8354)" fill="#fff"/><circle cx="398.04208" cy="381.56268" r="17.90945" fill="#fff"/></svg>