<svg xmlns="http://www.w3.org/2000/svg" width="552.81023" height="556.01254" viewBox="0 0 552.81023 556.01254" xmlns:xlink="http://www.w3.org/1999/xlink"><path d="M388.93929,554.00049H148.49056c-26.06787,0-47.27588-21.20801-47.27588-47.27637V47.27588C101.21468,21.20801,122.42269,0,148.49056,0h240.44873c26.06738,0,47.27539,21.20801,47.27539,47.27588V506.72412c0,26.06836-21.20801,47.27637-47.27539,47.27637Z" fill="#3f3d56"/><path d="M436.21487,169.00016c-1.10303,0-2,.89697-2,2v64c0,1.10303,.89697,2,2,2s2-.89697,2-2v-64c0-1.10303-.89697-2-2-2Z" fill="#3f3d56"/><path d="M431.71511,47.27623V506.71623c0,22.69-17.65997,41.25-39.98999,42.69h-.01001c-.33002,.02002-.65997,.04004-1,.05005-.59003,.02997-1.17999,.03998-1.77997,.03998,0,0-2.20001-.16003-6.22003-.46002-4.06-.29999-9.96997-.75-17.34003-1.33997-2.20996-.17004-4.53998-.36005-7-.56-4.89996-.40002-10.27997-.84003-16.04999-1.34003-2.29999-.19-4.67999-.39996-7.10999-.60999-12.41998-1.07001-26.33002-2.32001-41-3.73999-2.47998-.23004-4.97998-.47003-7.5-.72003-.65997-.07001-1.33002-.13-2-.20001-10.46002-1.02997-21.21002-2.13995-32-3.31995-.66998-.07001-1.34003-.14001-2-.21002-18.59003-2.04999-37.25-4.28003-54.71002-6.67999-13.42999-1.84003-26.14996-3.78003-37.56995-5.79004-3.72003-.65997-7.30005-1.31995-10.72003-1.98999-.66998-.13-1.34003-.26001-2-.39996-24.16998-4.84003-40-10.06-40-15.42004V47.27623c0-23.62994,19.15002-42.77997,42.78003-42.77997h25.53998c4.08002,0,7.35999,3.17999,7.71002,7.25,.02997,.27002,.06,.53998,.10999,.81,.73999,4.09003,4.48999,6.94,8.64996,6.94h156.42004c4.15997,0,7.90997-2.84998,8.64996-6.94,.04999-.27002,.08002-.53998,.11005-.81,.34998-4.07001,3.62994-7.25,7.70996-7.25h25.54004c23.62994,0,42.77997,19.15002,42.77997,42.77997Z" fill="#fff"/><path d="M229.89487,465.00016c.15002,.66998,.28003,1.32996,.41003,2h-72.09003c-4.65997,0-8.62,3.04999-9.98999,7.26001-.27002-.44-.54999-.88-.82001-1.32001v-.01001c.08002-.70001,.15997-1.40002,.25-2.10004,1.42999-11.31,4.22998-22.41998,8.34003-33.06,5.81,1,11.33997-2.89996,12.34998-8.70996,.52997-3.10004-.33002-6.29004-2.35999-8.70001l-.36005-2.96997,.37006-.66003c7.94995-13.71002,25.50995-18.37,39.20996-10.41998,6.51001,3.76996,11.28003,9.95996,13.27002,17.21997,3.77997,13.71002,8.47998,27.54999,11.41998,41.47003Z" fill="#fafafa"/><path d="M423.9949,352.05015l-.18005,.65002c-3.90997,1.04999-7.75,2.33997-11.48999,3.85999-2.14001,.88-4.25,1.83002-6.32996,2.85999-7.16003,3.58002-10.06006,12.28003-6.47003,19.44,1.81,3.63,5.07001,6.33002,8.97998,7.45001l.28003,.08002,.59998,.16998c-8.26001,14.34998-18.91998,27.17999-31.51996,37.91998-18.15002,57.01001-65.28003,56.71002-112.81,33.47003l-.03003-.01001c-3.65997,10-7.77002,19.81-12.31,29.42999-.65997,1.39001-1.32001,2.77002-2,4.14996v-14.01996c0-.90002-.10999-1.78003-.33002-2.60999,.40002-.89001,.78003-1.78003,1.16003-2.68005,12.20996-28.71997,20.45001-59.06995,24.40997-90.19995,1.53003-12.15002,2.38-24.37,2.54999-36.61005,.13-10.02997-.19-20.04999-.94-30.04999-4.15997-54.27997-21.13-106.79999-49.52997-153.25-15.19-10.95001-26.66003-26.29999-32.85999-43.96997-2.26001-6.35004-3.58002-13-3.92999-19.73999,1.81,.47998,10.43994-26.91003,9.25995-28.80005,3.06-3.57001,7.89001-4.92999,11.17004-8.37,16.29999-17.14001,35.07996-11.41998,41.87,15.5,20.03998,13.48999,18,31.42999,2.70001,47.01001-9.73004,9.91003-12.75,24.59003-21.55005,35.40002,.63,1.06,1.30005,2.09998,1.92999,3.15997,11.56,19.46002,21.18005,40,28.73004,61.34003,.38-22.79004,6.15997-45.17004,16.87-65.29004,10.64001-18.66998,28.02997-33.32996,43.64996-48.66998,11.56-11.52002,30.28003-11.48999,41.80005,.07001,5.52997,5.54999,8.63,13.07001,8.63,20.90002l-.02002,.75995c-2.14001,.88-4.25,1.83002-6.33002,2.86005-7.15997,3.57996-10.04999,12.28998-6.46997,19.44,1.81,3.62994,5.07001,6.33997,8.97998,7.44995l.28003,.08002c-1.62006,7.13-3.77002,14.12-6.45001,20.91998,8.88,69.03003-31.51001,88.69-84.94,83.08002-1.26001,.46002-2.48004,.91998-3.73004,1.34003,6.52002,29.94995,9.11005,60.63,7.71002,91.23999-.88,18.06-3.21997,36.01996-6.98999,53.70001l.16998-.62c6.35999-19.39001,19.21002-35.99005,36.39001-47,25.48999-16.07001,59-18.95001,85.84003-31.07001,8.28998-3.96002,18.20996-.45001,22.16998,7.83997,1.70001,3.54999,2.08002,7.58002,1.08002,11.39001Z" fill="#fafafa"/><path d="M100.21487,121.00016c-1.10303,0-2,.89697-2,2v16c0,1.10303,.89697,2,2,2s2-.89697,2-2v-16c0-1.10303-.89697-2-2-2Z" fill="#3f3d56"/><path d="M100.21487,169.00016c-1.10303,0-2,.89697-2,2v31c0,1.10303,.89697,2,2,2s2-.89697,2-2v-31c0-1.10303-.89697-2-2-2Z" fill="#3f3d56"/><path d="M100.21487,213.00016c-1.10303,0-2,.89697-2,2v31c0,1.10303,.89697,2,2,2s2-.89697,2-2v-31c0-1.10303-.89697-2-2-2Z" fill="#3f3d56"/><rect x="134.71487" y="11.50016" width="39" height="5" rx="2" ry="2" fill="#3f3d56"/><circle cx="369.71487" cy="12.50016" r="4" fill="#3f3d56"/><circle cx="380.71487" cy="12.50016" r="4" fill="#3f3d56"/><circle cx="391.71487" cy="12.50016" r="4" fill="#3f3d56"/><path d="M358.71487,62.00016H178.71487c-4.68701,0-8.5-3.81299-8.5-8.5s3.81299-8.5,8.5-8.5h180c4.68701,0,8.5,3.81299,8.5,8.5s-3.81299,8.5-8.5,8.5Z" fill="#e6e6e6"/><path d="M181.71487,57.50016c-2.75684,0-5-2.24316-5-5s2.24316-5,5-5,5,2.24316,5,5-2.24316,5-5,5Zm0-8c-1.6543,0-3,1.3457-3,3s1.3457,3,3,3,3-1.3457,3-3-1.3457-3-3-3Z" fill="#fff"/><path d="M189.40775,60.89811c-.24512,0-.49072-.08936-.68359-.27051l-4.69287-4.39795c-.40332-.37744-.42383-1.01025-.0459-1.41309,.37695-.4043,1.00977-.42432,1.41309-.0459l4.69287,4.39795c.40332,.37744,.42383,1.01025,.0459,1.41309-.19678,.21045-.46289,.31641-.72949,.31641Z" fill="#fff"/><path d="M181.21487,231.00016c-.82715,0-1.5,.67285-1.5,1.5v1c0,.82715,.67285,1.5,1.5,1.5h35c.82715,0,1.5-.67285,1.5-1.5v-1c0-.82715-.67285-1.5-1.5-1.5h-35Z" fill="#3f3d56"/><path d="M240.21487,216.00016h-82c-6.89258,0-12.5-5.60742-12.5-12.5V121.50016c0-6.89258,5.60742-12.5,12.5-12.5h82c6.89258,0,12.5,5.60742,12.5,12.5v82c0,6.89258-5.60742,12.5-12.5,12.5Zm-82-105c-5.79899,0-10.5,4.70101-10.5,10.5v82c0,5.79899,4.70101,10.5,10.5,10.5h57.43898c19.36367,0,35.06102-15.69735,35.06102-35.06102v-57.43898c0-5.79899-4.70101-10.5-10.5-10.5h-82Z" fill="#f2f2f2"/><g><path d="M170.21487,119.50016c-6.34131,0-11.5,5.15869-11.5,11.5v18c0,6.34131,5.15869,11.5,11.5,11.5h18c6.34131,0,11.5-5.15869,11.5-11.5v-18c0-6.34131-5.15869-11.5-11.5-11.5h-18Z" fill="#f2f2f2"/><path d="M217.21487,119.50016c-6.34131,0-11.5,5.15869-11.5,11.5v18c0,6.34131,5.15869,11.5,11.5,11.5h18c6.34131,0,11.5-5.15869,11.5-11.5v-18c0-6.34131-5.15869-11.5-11.5-11.5h-18Z" fill="#f2f2f2"/><path d="M166.71487,165.00016c-6.34131,0-11.5,5.15869-11.5,11.5v18c0,6.34131,5.15869,11.5,11.5,11.5h18c6.34131,0,11.5-5.15869,11.5-11.5v-18c0-6.34131-5.15869-11.5-11.5-11.5h-18Z" fill="#f2f2f2"/></g><path d="M320.21487,231.00016c-.82715,0-1.5,.67285-1.5,1.5v1c0,.82715,.67285,1.5,1.5,1.5h35c.82715,0,1.5-.67285,1.5-1.5v-1c0-.82715-.67285-1.5-1.5-1.5h-35Z" fill="#3f3d56"/><path d="M181.21487,409.00016c-.82715,0-1.5,.67285-1.5,1.5v1c0,.82715,.67285,1.5,1.5,1.5h35c.82715,0,1.5-.67285,1.5-1.5v-1c0-.82715-.67285-1.5-1.5-1.5h-35Z" fill="#3f3d56"/><path d="M240.21487,394.00016h-82c-6.89258,0-12.5-5.60742-12.5-12.5v-82c0-6.89258,5.60742-12.5,12.5-12.5h82c6.89258,0,12.5,5.60742,12.5,12.5v82c0,6.89258-5.60742,12.5-12.5,12.5Zm-82-105c-5.79899,0-10.5,4.70101-10.5,10.5v82c0,5.79899,4.70101,10.5,10.5,10.5h58.43898c18.81138,0,34.06102-15.24964,34.06102-34.06102v-58.43898c0-5.79899-4.70101-10.5-10.5-10.5h-82Z" fill="#f2f2f2"/><path d="M166.71487,297.00016c-6.34131,0-11.5,5.15869-11.5,11.5v18c0,6.34131,5.15869,11.5,11.5,11.5h18c6.34131,0,11.5-5.15869,11.5-11.5v-18c0-6.34131-5.15869-11.5-11.5-11.5h-18Z" fill="#f2f2f2"/><path d="M213.71487,297.00016c-6.34131,0-11.5,5.15869-11.5,11.5v18c0,6.34131,5.15869,11.5,11.5,11.5h18c6.34131,0,11.5-5.15869,11.5-11.5v-18c0-6.34131-5.15869-11.5-11.5-11.5h-18Z" fill="#f2f2f2"/><path d="M166.71487,343.00016c-6.34131,0-11.5,5.15869-11.5,11.5v18c0,6.34131,5.15869,11.5,11.5,11.5h18c6.34131,0,11.5-5.15869,11.5-11.5v-18c0-6.34131-5.15869-11.5-11.5-11.5h-18Z" fill="#f2f2f2"/><path d="M320.21487,409.00016c-.82715,0-1.5,.67285-1.5,1.5v1c0,.82715,.67285,1.5,1.5,1.5h35c.82715,0,1.5-.67285,1.5-1.5v-1c0-.82715-.67285-1.5-1.5-1.5h-35Z" fill="#3f3d56"/><path d="M379.21487,394.00016h-82c-6.89258,0-12.5-5.60742-12.5-12.5v-82c0-6.89258,5.60742-12.5,12.5-12.5h82c6.89258,0,12.5,5.60742,12.5,12.5v82c0,6.89258-5.60742,12.5-12.5,12.5Zm-82-105c-5.79899,0-10.5,4.70101-10.5,10.5v82c0,5.79899,4.70101,10.5,10.5,10.5h59.09646c18.44827,0,33.40354-14.95528,33.40354-33.40354v-59.09646c0-5.79899-4.70101-10.5-10.5-10.5h-82Z" fill="#f2f2f2"/><path d="M305.71487,297.00016c-6.34131,0-11.5,5.15869-11.5,11.5v18c0,6.34131,5.15869,11.5,11.5,11.5h18c6.34131,0,11.5-5.15869,11.5-11.5v-18c0-6.34131-5.15869-11.5-11.5-11.5h-18Z" fill="#f2f2f2"/><path d="M352.71487,297.00016c-6.34131,0-11.5,5.15869-11.5,11.5v18c0,6.34131,5.15869,11.5,11.5,11.5h18c6.34131,0,11.5-5.15869,11.5-11.5v-18c0-6.34131-5.15869-11.5-11.5-11.5h-18Z" fill="#f2f2f2"/><path d="M305.71487,343.00016c-6.34131,0-11.5,5.15869-11.5,11.5v18c0,6.34131,5.15869,11.5,11.5,11.5h18c6.34131,0,11.5-5.15869,11.5-11.5v-18c0-6.34131-5.15869-11.5-11.5-11.5h-18Z" fill="#f2f2f2"/><path d="M252.71511,477.49626v59.71002c-.66998-.07001-1.34003-.14001-2-.21002v-59.5c0-.90002-.10999-1.78003-.33002-2.60999-1.15997-4.53003-5.27997-7.89001-10.16998-7.89001h-82c-4.65997,0-8.62,3.04999-9.98999,7.26001-.33002,1.01996-.51001,2.10999-.51001,3.23999v45.03998c-.66998-.13-1.34003-.26001-2-.39996v-44.64001c0-2.45001,.71002-4.73999,1.94-6.66998,2.21997-3.5,6.12-5.83002,10.56-5.83002h82c5,0,9.32001,2.95001,11.33002,7.21002,.75,1.59998,1.16998,3.39996,1.16998,5.28998Z" fill="#f2f2f2"/><path d="M184.71487,475.00016h-18c-6.34003,0-11.5,5.15997-11.5,11.5v18c0,6.33997,5.15997,11.5,11.5,11.5h18c6.34003,0,11.5-5.16003,11.5-11.5v-18c0-6.34003-5.15997-11.5-11.5-11.5Z" fill="#f2f2f2"/><path d="M231.71487,475.00016h-18c-6.34003,0-11.5,5.15997-11.5,11.5v18c0,6.33997,5.15997,11.5,11.5,11.5h18c6.34003,0,11.5-5.16003,11.5-11.5v-18c0-6.34003-5.15997-11.5-11.5-11.5Z" fill="#f2f2f2"/><path d="M184.71511,520.99626h-18c-3.25,0-6.19,1.35999-8.27997,3.52997,11.41998,2.01001,24.13995,3.95001,37.56995,5.79004-1.01996-5.29999-5.69-9.32001-11.28998-9.32001Z" fill="#f2f2f2"/><path d="M391.71511,477.49626v71.96002h-2v-71.96002c0-5.78998-4.71002-10.5-10.5-10.5h-82c-5.78998,0-10.5,4.71002-10.5,10.5v63.22998c-.65997-.07001-1.33002-.13-2-.20001v-63.02997c0-6.89001,5.60999-12.5,12.5-12.5h82c6.89001,0,12.5,5.60999,12.5,12.5Z" fill="#f2f2f2"/><path d="M323.71487,475.00016h-18c-6.34003,0-11.5,5.15997-11.5,11.5v18c0,6.33997,5.15997,11.5,11.5,11.5h18c6.34003,0,11.5-5.16003,11.5-11.5v-18c0-6.34003-5.15997-11.5-11.5-11.5Z" fill="#f2f2f2"/><path d="M370.71487,475.00016h-18c-6.34003,0-11.5,5.15997-11.5,11.5v18c0,6.33997,5.15997,11.5,11.5,11.5h18c6.34003,0,11.5-5.16003,11.5-11.5v-18c0-6.34003-5.15997-11.5-11.5-11.5Z" fill="#f2f2f2"/><path d="M323.71511,520.99626h-18c-6.34003,0-11.5,5.15997-11.5,11.5v8.95001c14.66998,1.41998,28.58002,2.66998,41,3.73999v-12.69c0-6.34003-5.15997-11.5-11.5-11.5Z" fill="#f2f2f2"/><path d="M206.94428,342.8289c-2.70666,0-4.90854,2.20188-4.90854,4.90854v7.68293c0,2.70666,2.20188,4.90854,4.90854,4.90854h7.68293c2.70666,0,4.90854-2.20188,4.90854-4.90854v-7.68293c0-2.70666-2.20188-4.90854-4.90854-4.90854h-7.68293Z" fill="#f2f2f2"/><path d="M230.94428,342.8289c-2.70666,0-4.90854,2.20188-4.90854,4.90854v7.68293c0,2.70666,2.20188,4.90854,4.90854,4.90854h7.68293c2.70666,0,4.90854-2.20188,4.90854-4.90854v-7.68293c0-2.70666-2.20188-4.90854-4.90854-4.90854h-7.68293Z" fill="#f2f2f2"/><path d="M206.94428,166.8289c-2.70666,0-4.90854,2.20188-4.90854,4.90854v7.68293c0,2.70666,2.20188,4.90854,4.90854,4.90854h7.68293c2.70666,0,4.90854-2.20188,4.90854-4.90854v-7.68293c0-2.70666-2.20188-4.90854-4.90854-4.90854h-7.68293Z" fill="#f2f2f2"/><path d="M230.94428,166.8289c-2.70666,0-4.90854,2.20188-4.90854,4.90854v7.68293c0,2.70666,2.20188,4.90854,4.90854,4.90854h7.68293c2.70666,0,4.90854-2.20188,4.90854-4.90854v-7.68293c0-2.70666-2.20188-4.90854-4.90854-4.90854h-7.68293Z" fill="#f2f2f2"/><path d="M353.8049,521.00016h-7.68005c-2.70996,0-4.90997,2.20001-4.90997,4.90997v7.67999c0,2.71002,2.20001,4.91003,4.90997,4.91003h7.68005c2.70996,0,4.90997-2.20001,4.90997-4.91003v-7.67999c0-2.70996-2.20001-4.90997-4.90997-4.90997Z" fill="#f2f2f2"/><path d="M377.8049,521.00016h-7.68005c-2.70996,0-4.90997,2.20001-4.90997,4.90997v7.67999c0,2.71002,2.20001,4.91003,4.90997,4.91003h7.68005c2.70996,0,4.90997-2.20001,4.90997-4.91003v-7.67999c0-2.70996-2.20001-4.90997-4.90997-4.90997Z" fill="#f2f2f2"/><path d="M353.80514,543.99626h-7.68005c-1.52997,0-2.89996,.70001-3.79999,1.79999,5.77002,.5,11.15002,.94,16.04999,1.34003-.69995-1.84003-2.47998-3.14001-4.56995-3.14001Z" fill="#f2f2f2"/><path d="M377.80514,543.99626h-7.68005c-2.28998,0-4.21997,1.57001-4.75,3.70001,7.37006,.58997,13.28003,1.03998,17.34003,1.33997v-.13c0-2.70996-2.20001-4.90997-4.90997-4.90997Z" fill="#f2f2f2"/><g><g><path d="M397.93586,121.5439l3.36654,16.78805-9.32198,3.26121-2.92778-17.87602c-.42852-.34992-.81408-.76702-1.13798-1.25052-1.76165-2.62967-1.05798-6.18956,1.57169-7.95122,2.62967-1.76165,6.18956-1.05798,7.95122,1.57169,1.12348,1.67706,1.24028,3.7308,.49829,5.45679Z" fill="#a0616a"/><path d="M446.68334,231.4673l13.64454-14.6981-43.74285-44.74375s-1.78701-1.68041-.5796-1.91326-.61867-2.04223-.61867-2.04223c0,0-2.84894-2.70618-.56396-1.86164s-.61127-2.01783-.61127-2.01783l-10.24501-33.81899-1.81712-5.99834-15.30006,9.13231s.13577,1.1609,.40631,3.14114c1.36493,9.99072,6.16021,40.83706,14.25655,48.67585,9.7011,9.3925,45.17112,46.14485,45.17112,46.14485Z" fill="#e95316"/></g><g><polygon points="408.18587 544.6747 398.54838 544.67375 393.96377 507.50016 408.18783 507.50114 408.18587 544.6747" fill="#a0616a"/><path d="M408.5251,554.72851l-29.63668-.00113v-.37476c.00042-6.37061,5.16481-11.53489,11.53542-11.53525h.00071l5.41351-4.10694,10.10042,4.1076,2.5871,.00006-.00048,11.91042Z" fill="#2f2e41"/></g><g><polygon points="486.80908 535.22826 477.69527 538.36189 461.26944 504.70055 474.72046 500.07518 486.80908 535.22826" fill="#a0616a"/><path d="M490.39982,544.62511l-28.02571,9.63809-.12189-.35439c-2.07161-6.02438,1.13235-12.58756,7.15647-14.6599l.00067-.00023,3.78341-5.64436,10.88723,.59917,2.44646-.84138,3.87335,11.26301Z" fill="#2f2e41"/></g><path d="M468.82511,295.91619h-64.62992s-3.14563,27.98128-4.31297,26.28262-.82872,.7685-.49803,3.03492-2.96044,3.66505-.81488,4.96573,1.37521,3.7135-.73961,4.50709-1.11483,6.79359-1.11483,6.79359l-11,107.41732,9,80.58268h15l20-147v75l40,67,13-5-16-72,12-133-9.88976-18.58397Z" fill="#2f2e41"/><path d="M479.71487,303.50016l-4.94,5.41998-75.06,2.58002-3-7,15-34,16-69,7-15v-1.64953c0-.23048-.05366-.45779-.15673-.66394h0c-.42971-.85943,.05779-1.89447,.99404-2.11053l.16269-2.57601-2,1,13-6,10.70001,1.04999,.29999,.95001,2.22998,1.70996c9.29004,7.10004,14.65002,18.19,14.44,29.88l-.66998,37.41003,6,58Z" fill="#3f3d56"/><path d="M435.97578,169.478c.44607,.10291,.89215,.19213,1.33818,.26078,1.38622,.22643,2.77245,.29508,4.12433,.21273,4.10372-.21273,7.97414-1.72935,11.10341-4.22728,3.3077-2.63515,5.77815-6.36144,6.81439-10.79459,2.43615-10.4652-4.07628-20.93728-14.54149-23.37343-10.31421-2.40872-20.62846,3.87729-23.26361,14.07485-.04117,.15782-.08235,.30882-.11669,.46664-2.43615,10.47207,4.06946,20.93728,14.54149,23.3803Z" fill="#a0616a"/><g><path d="M406.40569,304.5131l10.01329-13.88908,8.73232,4.61317-11.10915,14.30771c.03509,.55212-.00828,1.11847-.14226,1.6848-.7287,3.08019-3.81644,4.98646-6.89663,4.25776-3.08019-.7287-4.98646-3.81644-4.25776-6.89663,.46473-1.96438,1.89042-3.44724,3.66019-4.07773Z" fill="#a0616a"/><path d="M453.80149,194.00016h-20.05512l-3.0315,62.5s-.01575,2.45295-1.00787,1.72647-1.07581,1.84285-1.07581,1.84285c0,0-.04504,3.9291-.98068,1.67989s-1.06296,1.82083-1.06296,1.82083l-17.81523,30.51724-3.15982,5.41272,17.10236,5s.75843-.88933,2.02566-2.43486c6.39342-7.79754,25.73777-32.29831,25.97434-43.56514,.28346-13.5,3.08661-64.5,3.08661-64.5Z" fill="#e95316"/></g><path d="M427.71487,208.50016s16-21,30-1l-3-26-15.30114-2.81798c-.89722-.09613-1.672,.62376-1.64194,1.52562l-10.05692,28.29236Z" fill="#3f3d56"/><path d="M433.71487,187.50016l-.04999-3.46002-.46002-.73999,.51001-.79999,.08002-.17999,1.91998-7.82001,17.09998-6,4.60004,7.04999c-6.91003,4.65997-8.48004,12.12-23.70001,11.95001Z" fill="#e95316"/><path d="M449.85809,166.58832l-1.6671-12.51418c-.16544-1.24192-1.78113-1.61645-2.47611-.57398h-3l-3-10s-1.14369,4.52655-3.07756,3.41705c-2.12935-1.22165-4.79537-.60893-7.16398,.03623l1.08131-2.87249-4.81546,1.31652,.64598-2.03817-2.99273,.95875c.51445-.38327,.05075-1.29434-.5832-1.39266s-3.09436,2.57477-4.09436,2.57477c-.82443,0-1.63575-.66138-2.27223-1.18537-1.68793-1.38961-2.52987-8.3656-1.72777-9.81463,1.4876-2.6874,4.8628-1.79378,7-4,.47633-.49171,5.51568-.51616,6-1,.59724-.59665,4.91625-2.73127,5.76042-2.73872s1.6425,1.04862,1.09338,1.68984c.39227-1.27197,2.02839-1.60005,3.35923-1.5743,.93617,.01811,3.85426-2.45926,4.78697-2.37682,2.0091,.17758,2.03371,2.91504,4.04282,3.09262,1.62258,.14342,3.54899,.49565,4.18759,1.99417,.31202,.73218,.21854,1.56284,.24174,2.35839s.23117,1.68287,.90871,2.10047c.59029,.36383,1.37973,.24663,1.9747-.10948s1.03787-.91288,1.46712-1.45744c.64923,2.1006,4.29846,7.2012,4.94769,9.3018,.65678,2.12503,1.31579,4.25963,1.65073,6.45848,1.02108,6.70327-6.19641,13.82581-10.84214,18.76481" fill="#2f2e41"/></g><path d="M297.21487,110.00016c-6.34131,0-11.5,5.15869-11.5,11.5v82c0,6.34131,5.15869,11.5,11.5,11.5h82c6.34131,0,11.5-5.15869,11.5-11.5V121.50016c0-6.34131-5.15869-11.5-11.5-11.5h-82Z" fill="#f2f2f2"/><path d="M305.71487,119.00016c-6.34131,0-11.5,5.15869-11.5,11.5v18c0,6.34131,5.15869,11.5,11.5,11.5h18c6.34131,0,11.5-5.15869,11.5-11.5v-18c0-6.34131-5.15869-11.5-11.5-11.5h-18Z" fill="#e95316"/><path d="M352.71487,119.00016c-6.34131,0-11.5,5.15869-11.5,11.5v18c0,6.34131,5.15869,11.5,11.5,11.5h18c6.34131,0,11.5-5.15869,11.5-11.5v-18c0-6.34131-5.15869-11.5-11.5-11.5h-18Z" fill="#e95316"/><path d="M305.71487,165.00016c-6.34131,0-11.5,5.15869-11.5,11.5v18c0,6.34131,5.15869,11.5,11.5,11.5h18c6.34131,0,11.5-5.15869,11.5-11.5v-18c0-6.34131-5.15869-11.5-11.5-11.5h-18Z" fill="#fff"/><g><path d="M346.12341,165.00016c-2.70666,0-4.90854,2.20188-4.90854,4.90854v7.68293c0,2.70666,2.20188,4.90854,4.90854,4.90854h7.68293c2.70666,0,4.90854-2.20188,4.90854-4.90854v-7.68293c0-2.70666-2.20188-4.90854-4.90854-4.90854h-7.68293Z" fill="#fff"/><path d="M370.12341,165.00016c-2.70666,0-4.90854,2.20188-4.90854,4.90854v7.68293c0,2.70666,2.20188,4.90854,4.90854,4.90854h7.68293c2.70666,0,4.90854-2.20188,4.90854-4.90854v-7.68293c0-2.70666-2.20188-4.90854-4.90854-4.90854h-7.68293Z" fill="#fff"/><path d="M346.12341,188.00016c-2.70666,0-4.90854,2.20188-4.90854,4.90854v7.68293c0,2.70666,2.20188,4.90854,4.90854,4.90854h7.68293c2.70666,0,4.90854-2.20188,4.90854-4.90854v-7.68293c0-2.70666-2.20188-4.90854-4.90854-4.90854h-7.68293Z" fill="#fff"/><path d="M370.12341,188.00016c-2.70666,0-4.90854,2.20188-4.90854,4.90854v7.68293c0,2.70666,2.20188,4.90854,4.90854,4.90854h7.68293c2.70666,0,4.90854-2.20188,4.90854-4.90854v-7.68293c0-2.70666-2.20188-4.90854-4.90854-4.90854h-7.68293Z" fill="#fff"/></g><g><path d="M498.55135,538.67958c2.06592,.12937,3.20768-2.43737,1.64468-3.93333l-.1555-.61819c.02047-.04951,.04105-.09897,.06178-.14839,2.08924-4.9818,9.16992-4.94742,11.24139,.04177,1.83859,4.42817,4.17942,8.86389,4.75579,13.54594,.25838,2.0668,.14213,4.17236-.31648,6.20047,4.30807-9.41059,6.57515-19.68661,6.57515-30.02077,0-2.59652-.14213-5.19301-.43275-7.78295-.239-2.11854-.56839-4.2241-.99471-6.31034-2.30575-11.2772-7.29852-22.01825-14.50012-30.98962-3.46197-1.89248-6.34906-4.85065-8.09295-8.39652-.62649-1.27891-1.11739-2.65462-1.34991-4.05618,.39398,.05168,1.48556-5.94866,1.18841-6.3168,.54906-.83317,1.53178-1.24733,2.13144-2.06034,2.98232-4.04341,7.0912-3.33741,9.23621,2.15727,4.58224,2.31266,4.62659,6.14806,1.81495,9.83683-1.78878,2.34682-2.03456,5.52233-3.60408,8.03478,.16151,.20671,.32944,.40695,.4909,.61366,2.96106,3.79788,5.52208,7.88002,7.68104,12.16859-.61017-4.76621,.29067-10.50822,1.82641-14.20959,1.74819-4.21732,5.02491-7.76915,7.91045-11.41501,3.46601-4.37924,10.57337-2.46806,11.18401,3.08332,.00591,.05375,.01166,.10745,.01731,.1612-.4286,.24178-.84849,.49867-1.25864,.76992-2.33949,1.54723-1.53096,5.17386,1.24107,5.60174l.06277,.00967c-.15503,1.54366-.41984,3.07444-.80734,4.57937,3.70179,14.31579-4.29011,19.5299-15.70147,19.76412-.25191,.12916-.49738,.25832-.74929,.38109,1.15617,3.25525,2.07982,6.59447,2.76441,9.97891,.61359,2.99043,1.03991,6.01317,1.27885,9.04888,.29715,3.83006,.27129,7.67959-.05168,11.50323l.01939-.13562c.82024-4.21115,3.10671-8.14462,6.4266-10.87028,4.94561-4.06264,11.93282-5.55869,17.26826-8.82425,2.56833-1.57196,5.85945,.45945,5.41121,3.43708l-.02182,.14261c-.79443,.32289-1.56947,.69755-2.31871,1.11733-.4286,.24184-.84848,.49867-1.25864,.76992-2.33949,1.54729-1.53096,5.17392,1.24107,5.6018l.06282,.00965c.0452,.00646,.08397,.01295,.12911,.01944-1.36282,3.23581-3.26168,6.23922-5.63854,8.82922-2.31463,12.49713-12.25603,13.68282-22.89022,10.04354h-.00648c-1.16259,5.06378-2.86128,10.01127-5.0444,14.72621h-18.02019c-.06463-.20022-.12274-.40692-.18089-.60717,1.6664,.10341,3.34571,.00649,4.98629-.29702-1.33701-1.64059-2.67396-3.29409-4.01097-4.93462-.03229-.0323-.05816-.0646-.08397-.09689-.67817-.8396-1.36282-1.67283-2.04099-2.51246l-.00036-.00102c-.04245-2.57755,.26652-5.14662,.87876-7.63984l.00057-.00035Z" fill="#f2f2f2"/><path d="M0,554.82253c0,.66003,.53003,1.19,1.19006,1.19H551.48004c.65997,0,1.19-.52997,1.19-1.19,0-.65997-.53003-1.19-1.19-1.19H1.19006c-.66003,0-1.19006,.53003-1.19006,1.19Z" fill="#ccc"/></g></svg>