<svg xmlns="http://www.w3.org/2000/svg" data-name="Layer 1" width="1058" height="747.88979" viewBox="0 0 1058 747.88979" xmlns:xlink="http://www.w3.org/1999/xlink"><path d="M520.46547,394.96687a51.3281,51.3281,0,0,1-4.75-3.95606l2.05615-2.18457a48.40458,48.40458,0,0,0,4.47168,3.72461Z" transform="translate(-71 -76.05511)" fill="#e4e4e4"/><path d="M507.463,380.93318a50.57453,50.57453,0,0,1-5.39258-11.85059l2.86767-.88086a47.59493,47.59493,0,0,0,5.07227,11.14746Zm-7.595-24.6792q-.04431-1.06349-.04444-2.1294a50.6839,50.6839,0,0,1,1.17285-10.83984l2.93018.64258a47.6897,47.6897,0,0,0-1.103,10.19726q0,1.00269.042,2.00342Zm8.20678-23.84571-2.66748-1.373a51.17452,51.17452,0,0,1,4.26953-6.88526,41.47569,41.47569,0,0,1,3.18213-3.82129l2.18555,2.05469a38.523,38.523,0,0,0-2.95117,3.54443A48.17,48.17,0,0,0,508.07484,332.40827Zm16.59571-17.40283-1.41651-2.64453a40.83522,40.83522,0,0,1,12.38379-4.25244l.5083,2.957A37.82606,37.82606,0,0,0,524.67055,315.00544Zm35.14746-.32764a37.488,37.488,0,0,0-11.53858-3.73339l.45069-2.96582a40.48847,40.48847,0,0,1,12.46,4.03125Z" transform="translate(-71 -76.05511)" fill="#e4e4e4"/><path d="M572.89418,326.54987a29.83459,29.83459,0,0,0-3.39478-4.583l2.22852-2.00879a32.82623,32.82623,0,0,1,3.73706,5.0459Z" transform="translate(-71 -76.05511)" fill="#e4e4e4"/><path d="M457.88637,294.63435l-2.41651-1.77735c1.2002-1.63183,2.46509-3.2456,3.76-4.79638l2.30274,1.92285C460.27724,291.48737,459.05043,293.05232,457.88637,294.63435Z" transform="translate(-71 -76.05511)" fill="#e4e4e4"/><path d="M606.5226,291.1656a75.04722,75.04722,0,0,0-7.637-9.00977l2.12842-2.11426a78.04775,78.04775,0,0,1,7.94312,9.3711Zm-136.82642-9.79834-2.04394-2.19629a97.24989,97.24989,0,0,1,9.47168-7.7583l1.75048,2.43652A94.18318,94.18318,0,0,0,469.69618,281.36726Zm120.2334-6.91748a95.86485,95.86485,0,0,0-9.981-6.415l1.46143-2.62012a98.85178,98.85178,0,0,1,10.29492,6.61719Zm-101.0022-6.89893-1.42871-2.63769a97.69917,97.69917,0,0,1,11.10864-5.14161l1.08643,2.7959A94.72206,94.72206,0,0,0,488.92738,267.55085ZM569.2477,262.92a94.107,94.107,0,0,0-11.26026-3.72412l.76026-2.90234a97.2069,97.2069,0,0,1,11.62011,3.84326Zm-58.24781-3.94873-.72851-2.91015a98.5437,98.5437,0,0,1,12.03442-2.22657l.36084,2.97852A95.5269,95.5269,0,0,0,510.99989,258.97126Zm35.34668-2.05078a94.93577,94.93577,0,0,0-11.83618-.79639l.01367-3a98.038,98.038,0,0,1,12.21118.82178Z" transform="translate(-71 -76.05511)" fill="#e4e4e4"/><path d="M615.08729,306.63679c-.73852-1.80957-1.55688-3.61035-2.43261-5.35205l2.68066-1.34766c.9104,1.812,1.76148,3.68457,2.5293,5.56592Z" transform="translate(-71 -76.05511)" fill="#e4e4e4"/><path d="M623.30922,482.9322l-1.03076-2.81738c1.84839-.67627,3.71093-1.40039,5.53613-2.15186l1.14209,2.77441C627.09511,481.504,625.195,482.24226,623.30922,482.9322Z" transform="translate(-71 -76.05511)" fill="#e4e4e4"/><path d="M576.53554,492.09675l-.10938-2.998c3.89234-.14209,7.82666-.44043,11.69361-.88672l.344,2.98047C584.51918,491.64753,580.506,491.95173,576.53554,492.09675Zm-11.96241-.03516c-3.9746-.16845-7.98584-.49707-11.92285-.97754l.36328-2.97753c3.85865.47021,7.79078.79248,11.68653.958Zm35.71119-2.70654-.57666-2.94434c3.82055-.748,7.65991-1.6582,11.41088-2.7041l.80567,2.88965C608.098,487.66316,604.18178,488.59138,600.28432,489.35505Zm-59.4419-.1875c-3.8938-.7915-7.80322-1.749-11.61963-2.84668l.8291-2.88281c3.74024,1.07519,7.57178,2.01416,11.38819,2.79Zm-22.97656-6.60693c-3.718-1.39795-7.42627-2.96338-11.022-4.65284l1.27588-2.71484c3.52368,1.65527,7.158,3.18945,10.80175,4.55957ZM496.22719,472.398c-3.44019-1.96191-6.85474-4.09082-10.14868-6.32813l1.68554-2.48144c3.22925,2.19336,6.57666,4.28027,9.949,6.20312Z" transform="translate(-71 -76.05511)" fill="#e4e4e4"/><path d="M476.42812,458.91218c-1.56495-1.27783-3.11548-2.60889-4.6084-3.95606l2.00976-2.22753c1.45655,1.31494,2.96924,2.61328,4.4961,3.86035Z" transform="translate(-71 -76.05511)" fill="#e4e4e4"/><path d="M393.38026,156.42732l-1.541-2.57422c1.7229-1.03125,3.479-2.05225,5.21972-3.03467l1.47461,2.6123C396.81483,154.401,395.08119,155.40876,393.38026,156.42732Z" transform="translate(-71 -76.05511)" fill="#e4e4e4"/><path d="M682.17519,197.39851c-2.57032-2.99414-5.27564-5.94776-8.04053-8.77735l2.146-2.09668c2.80957,2.876,5.5586,5.877,8.1709,8.91993ZM665.54726,180.377c-2.9314-2.63916-5.9917-5.22363-9.0962-7.68066l1.86182-2.35254c3.15405,2.49658,6.26343,5.12207,9.2417,7.80371Zm-18.658-14.79c-3.24488-2.27832-6.5835-4.49951-9.92334-6.60107l1.59814-2.53906c3.38208,2.12842,6.76318,4.37744,10.04932,6.68506Zm-20.16675-12.68847c-3.44873-1.93262-6.99536-3.80225-10.54126-5.55713l1.33057-2.68848c3.59155,1.77686,7.18408,3.6709,10.67749,5.62842Zm-217.6565-5.05957-1.33837-2.68457c3.58813-1.78858,7.27075-3.50733,10.94506-5.10889l1.19873,2.75C416.24379,144.37653,412.60829,146.07331,409.06605,147.83894Zm196.302-5.50537c-3.63135-1.57032-7.35157-3.06592-11.05713-4.44532l1.04687-2.81152c3.75366,1.39746,7.52222,2.9126,11.20069,4.50293Zm-174.447-4.021-1.05639-2.80762c3.74682-1.40967,7.5852-2.74316,11.40918-3.96289l.91162,2.8584C438.41005,135.60456,434.62025,136.921,430.921,138.31257Zm152.11768-4.29443c-3.771-1.18653-7.62573-2.291-11.45752-3.28272l.75147-2.9043c3.88159,1.0044,7.78662,2.12354,11.60644,3.32569Zm-129.40405-2.94971-.76465-2.90137c3.87085-1.02,7.825-1.95556,11.75269-2.77978l.61621,2.93554C461.36073,129.13728,457.45644,130.06111,453.63466,131.06843Zm106.334-3.022c-3.87158-.79248-7.82007-1.49512-11.73559-2.08838l.44922-2.96582c3.96655.60058,7.96606,1.3125,11.88793,2.11474Zm-83.00122-1.87354-.46582-2.96387c3.95557-.62158,7.98413-1.15039,11.97388-1.57128l.31494,2.98339C484.851,125.03718,480.87318,125.55915,476.96742,126.17292Zm59.43726-1.69775c-3.9336-.3916-7.93384-.686-11.88941-.876l.14356-2.99609c4.00659.19189,8.05835.49023,12.04272.88672Zm-35.728-.80176-.16211-2.99512c4.00537-.21728,8.0669-.33349,12.07178-.3457l.00928,3C508.64149,123.3448,504.63148,123.45954,500.67665,123.67341Z" transform="translate(-71 -76.05511)" fill="#e4e4e4"/><path d="M693.17812,211.54939c-1.137-1.61866-2.31348-3.2378-3.49683-4.812l2.398-1.80273c1.20288,1.6001,2.39844,3.24561,3.55395,4.89111Z" transform="translate(-71 -76.05511)" fill="#e4e4e4"/><path d="M556.56728,696.6905q-2.98462-.38306-5.96534-.81592l.43067-2.96875q2.95641.42847,5.9165.80908Z" transform="translate(-71 -76.05511)" fill="#e4e4e4"/><path d="M538.46083,693.90437c-4.01514-.72119-8.07471-1.521-12.06592-2.377l.6294-2.93359c3.95849.84912,7.98462,1.64258,11.96679,2.35742Zm-24.04468-5.15723c-3.967-.99121-7.96338-2.062-11.87842-3.18262l.82544-2.88379c3.88257,1.11084,7.84595,2.17286,11.78052,3.15625ZM490.77382,681.984c-3.89014-1.25586-7.80518-2.59327-11.63672-3.9751l1.01782-2.82227c3.79981,1.37061,7.68262,2.69678,11.54077,3.94287Zm-23.13208-8.33887c-3.78613-1.51123-7.60205-3.10889-11.342-4.74951l1.20508-2.74707c3.70922,1.62695,7.49389,3.21191,11.249,4.71045Zm-22.51782-9.87744c-3.68091-1.76416-7.38062-3.61475-10.99634-5.5l1.38672-2.66016c3.58618,1.86963,7.25561,3.70508,10.90649,5.45508Zm-21.80274-11.36572c-3.54053-1.999-7.10815-4.09229-10.60376-6.22217l1.561-2.56153c3.46728,2.11231,7.00586,4.18848,10.51782,6.17139ZM402.3268,639.608c-3.40967-2.23633-6.83057-4.562-10.168-6.91162l1.727-2.45313c3.31055,2.33106,6.7041,4.6377,10.08642,6.856Zm-20.10791-14.1665c-3.262-2.47608-6.50879-5.04786-9.65027-7.644l1.91089-2.3125c3.11,2.56983,6.32409,5.11573,9.55334,7.5669Zm-18.97632-15.67969c-3.04029-2.73193-6.063-5.564-8.984-8.418l2.09643-2.14551c2.89136,2.82422,5.88331,5.62793,8.89271,8.332ZM345.63429,592.5572c-2.80115-2.97608-5.57617-6.05127-8.24805-9.14063l2.269-1.96289c2.64453,3.05811,5.39123,6.10205,8.16357,9.04785ZM329.53,573.93611c-2.54174-3.20215-5.04834-6.50049-7.45007-9.80274l2.42627-1.76465c2.37708,3.26856,4.85791,6.53272,7.37366,9.70215Z" transform="translate(-71 -76.05511)" fill="#e4e4e4"/><path d="M315.01369,553.97224q-1.66974-2.51367-3.28382-5.05469l2.53223-1.6084q1.598,2.51514,3.25037,5.00293Z" transform="translate(-71 -76.05511)" fill="#e4e4e4"/><path d="M956.74445,205.84871l-37.392,34.42385,29.71632-49.86163c-23.4121-42.45605-61.70232-79.14845-61.70232-79.14845s-79.43884,76.10873-79.43883,135.93514,35.56581,80.71552,79.43888,80.71551c43.87236,0,79.43814-20.88915,79.43813-80.71555C966.80459,233.88143,962.86336,219.75935,956.74445,205.84871Z" transform="translate(-71 -76.05511)" fill="#f2f2f2"/><path d="M909.73622,242.13616V245.085c-.17517,34.2778-5.95619,61.02262-17.2994,79.85489-.16056.27738-.33574.54014-.49639.81752l-1.27008-.77368-1.21163-.75916c12.58406-20.336,17.03664-49.08082,17.1972-78.97892.01461-.96356.02922-1.94165.01461-2.91974-.04384-12.65713-.81753-25.46013-2.05839-37.89824-.08759-.96357-.18979-1.94165-.292-2.91974-1.72264-16.40892-4.20444-32.08791-6.7446-45.70851-.17518-.96357-.365-1.927-.55476-2.876-4.39423-23.0367-8.876-39.723-9.898-43.41651-.11672-.45255-.18979-.70071-.2044-.75907l1.38689-.39419.01462-.01462,1.4015-.39419c.01462.05845.26277.89059.67149,2.43805,1.56207,5.781,5.62055,21.47462,9.606,42.17556.17518.93434.365,1.8979.54015,2.86138,2.073,11.05122,4.10223,23.40175,5.70815,36.36531q.61308,4.88335,1.0949,9.63519c.11673.97809.21893,1.95617.30652,2.91974Q909.66334,224.50827,909.73622,242.13616Z" transform="translate(-71 -76.05511)" fill="#fff"/><path d="M899.99889,152.5585c-.97808.13143-1.97078.26285-2.9781.365a80.53579,80.53579,0,0,1-8.23368.42342,78.342,78.342,0,0,1-33.869-7.6497c-.61312.77369-1.22624,1.54746-1.854,2.33576a81.24279,81.24279,0,0,0,35.723,8.23368,83.33,83.33,0,0,0,8.78844-.46717c.9927-.10221,1.9854-.23363,2.96349-.37958a80.55882,80.55882,0,0,0,23.28493-7.05121q-.9416-1.20436-1.83945-2.365A78.073,78.073,0,0,1,899.99889,152.5585Z" transform="translate(-71 -76.05511)" fill="#fff"/><path d="M907.34209,201.42038q-1.511.08754-3.02194.08759c-.3066.01461-.62773.01461-.93434.01461a78.75749,78.75749,0,0,1-64.64307-33.76677c-.5839.86127-1.16788,1.72263-1.73716,2.59852a81.68192,81.68192,0,0,0,66.38023,34.088c.40881,0,.81753,0,1.22633-.01461,1.02184-.01462,2.02915-.04384,3.03647-.08759a81.25,81.25,0,0,0,43.28516-15.18269c-.46717-.86128-.93433-1.72264-1.41612-2.58391A78.21664,78.21664,0,0,1,907.34209,201.42038Z" transform="translate(-71 -76.05511)" fill="#fff"/><path d="M909.73622,242.13616c-1.02184.08759-2.04376.14595-3.06569.18979-1.0949.04375-2.1898.073-3.28471.073A78.97052,78.97052,0,0,1,827.677,185.58076c-.657,1.18258-1.31391,2.35046-1.94165,3.53295a81.86244,81.86244,0,0,0,77.65048,56.205c1.09491,0,2.18981-.01461,3.2701-.073,1.03654-.02922,2.05846-.08759,3.0803-.16065a81.623,81.623,0,0,0,53.86922-26.29228c-.30661-1.08029-.657-2.146-1.00732-3.22625A78.71573,78.71573,0,0,1,909.73622,242.13616Z" transform="translate(-71 -76.05511)" fill="#fff"/><path d="M191.377,229.68527l24.38822,44.59126-41.22162-40.86586C127.694,245.8908,82.84909,274.2,82.84909,274.2s54.70034,95.45126,112.7603,109.88178,86.911-15.04656,97.49349-57.62422c10.5823-42.577-1.11135-82.13124-59.17131-96.56176C221.0086,226.68386,206.35284,227.10237,191.377,229.68527Z" transform="translate(-71 -76.05511)" fill="#f2f2f2"/><path d="M215.25432,284.05831l2.86181.71128c33.22345,8.438,57.78418,20.4994,73.32434,36.05016.23046.22273.44321.45611.67365.67893l-1.05719,1.046-1.029.99274c-16.70017-17.11768-43.52229-28.37224-72.49888-35.73968-.93159-.2466-1.87728-.4967-2.83-.71844-12.294-3.01044-24.90558-5.34777-37.27575-7.14371-.95624-.14741-1.9301-.28415-2.904-.42089-16.33994-2.28616-32.15461-3.65952-45.98575-4.47974-.97737-.06241-1.95818-.11062-2.92489-.15533-23.41642-1.29213-40.69108-.96749-44.522-.86664-.46735.00412-.7258.01517-.786.01528l-.048-1.441-.01066-.0177-.0445-1.45521c.06025-.00008.92767-.04019,2.528-.06359,5.98711-.12152,22.19627-.27477,43.2473.85069.949.05536,1.9299.10359,2.90718.166,11.22494.65385,23.70027,1.66355,36.66842,3.232q4.887.58293,9.6148,1.2615c.97736.12264,1.95122.25938,2.90746.4068Q198.12933,279.87708,215.25432,284.05831Z" transform="translate(-71 -76.05511)" fill="#fff"/><path d="M125.97284,271.90139c-.10838.98091-.22027,1.976-.36415,2.9782a80.53521,80.53521,0,0,1-1.5751,8.09271,78.34182,78.34182,0,0,1-15.59326,31.02381c.60295.78163,1.206,1.56329,1.8196,2.36263a81.24281,81.24281,0,0,0,16.60719-32.68218,83.32743,83.32743,0,0,0,1.66646-8.64164c.14026-.988.25216-1.98313.34644-2.96755a80.55909,80.55909,0,0,0-1.22652-24.29821q-1.39593.62329-2.73884,1.21469A78.0733,78.0733,0,0,1,125.97284,271.90139Z" transform="translate(-71 -76.05511)" fill="#fff"/><path d="M175.16324,276.56082q-.27949,1.48748-.64391,2.95384c-.05977.30108-.13723.61273-.21119.91028A78.75749,78.75749,0,0,1,125.946,335.01457c.695.7744,1.39007,1.54891,2.10278,2.31265a81.68192,81.68192,0,0,0,49.09286-56.198c.09861-.39674.1972-.79339.28162-1.19365.23229-.99519.4469-1.97981.64741-2.96793a81.25,81.25,0,0,0-4.29372-45.66929c-.94853.24563-1.89714.49124-2.8492.75105A78.21667,78.21667,0,0,1,175.16324,276.56082Z" transform="translate(-71 -76.05511)" fill="#fff"/><path d="M215.25432,284.05831c-.16147,1.01279-.35133,2.01862-.55528,3.02095-.22164,1.07312-.45737,2.14275-.72147,3.20532a78.97051,78.97051,0,0,1-73.402,59.7685c.9892.92281,1.96414,1.84207,2.9603,2.7365a81.86243,81.86243,0,0,0,73.27526-61.80074c.2641-1.06257.514-2.12867.718-3.19114.22165-1.013.41151-2.01882.58708-3.02811a81.623,81.623,0,0,0-12.52235-58.62053c-1.12235.037-2.24107.11994-3.374.19938A78.71573,78.71573,0,0,1,215.25432,284.05831Z" transform="translate(-71 -76.05511)" fill="#fff"/><path d="M259.67876,513.00123l-9.13767-9.30419,11.204-17.13133L280.92151,454.645a7.46271,7.46271,0,1,1,9.11661,3.99688L274.20964,492.72Z" transform="translate(-71 -76.05511)" fill="#a0616a"/><path d="M249.55647,534.24188a10.298,10.298,0,0,1-10.16011,4.60037,9.62767,9.62767,0,0,1-8.08925-6.781,9.17951,9.17951,0,0,1,1.0114-7.66388c6.11285-10.30492,17.387-23.91394,17.5-24.04988l.17952-.21642,19.01532,4.11976Z" transform="translate(-71 -76.05511)" fill="#e95316"/><path d="M412.23254,162.82271l-2.23631.68851-18.86153-61.263A37.09978,37.09978,0,0,0,344.76084,77.7074l-.00017,0L214.96688,117.66813A37.09979,37.09979,0,0,0,190.426,164.042l0,.00011L293.90187,500.1355a37.09978,37.09978,0,0,0,46.37385,24.54084l.00011,0,129.79379-39.96068a37.09979,37.09979,0,0,0,24.54093-46.37381l0-.00014L423.42216,207.11926l2.23634-.68852Z" transform="translate(-71 -76.05511)" fill="#3f3d56"/><path d="M349.03153,86.49174l-16.9424,5.21619a13.16293,13.16293,0,0,1-6.31158,20.9174l-74.35727,22.893a13.16291,13.16291,0,0,1-16.9835-13.74538l-15.82424,4.87194a27.70571,27.70571,0,0,0-18.32683,34.63147L303.60976,496.87673a27.70571,27.70571,0,0,0,34.63149,18.32682l.00007,0,130.419-40.15315a27.70572,27.70572,0,0,0,18.32682-34.6315h0L383.663,104.81849A27.70568,27.70568,0,0,0,349.03153,86.49174Z" transform="translate(-71 -76.05511)" fill="#fff"/><path d="M874.14109,819.2002,569.6666,709.753a28.95764,28.95764,0,0,1-17.43527-37.00424L710.95438,231.19228A28.95764,28.95764,0,0,1,747.95862,213.757l304.47449,109.4472a28.95764,28.95764,0,0,1,17.43527,37.00424l-158.723,441.55648A28.95764,28.95764,0,0,1,874.14109,819.2002Z" transform="translate(-71 -76.05511)" fill="#3f3d56"/><path d="M880.91974,802.026,575.37339,692.19355a8.92663,8.92663,0,0,1-5.37461-11.407L729.773,236.30579a8.92662,8.92662,0,0,1,11.407-5.37462l305.54635,109.83249a8.92662,8.92662,0,0,1,5.37461,11.407L892.3267,796.65142A8.92661,8.92661,0,0,1,880.91974,802.026Z" transform="translate(-71 -76.05511)" fill="#fff"/><circle cx="825.04157" cy="200.34539" r="2.46063" fill="#fff"/><circle cx="343.2874" cy="296.67718" r="66.44881" transform="translate(-180.23589 253.58048) rotate(-45)" fill="#e95316"/><polygon points="279.245 252.333 246.355 230.021 249.227 225.79 276.456 244.263 296.136 182.699 301.004 184.255 279.245 252.333" fill="#fff"/><circle cx="811.2874" cy="510.67718" r="84.16196" transform="translate(-194.48272 647.1856) rotate(-45)" fill="#e95316"/><polygon points="719.989 470.381 707.903 421.516 714.19 419.963 724.196 460.419 794.862 419.097 798.129 424.684 719.989 470.381" fill="#fff"/><polygon points="193.976 686.239 205.338 686.239 210.743 642.415 193.974 642.416 193.976 686.239" fill="#a0616a"/><path d="M262.07792,758.58465l22.37521-.00091h.0009a14.26,14.26,0,0,1,14.25924,14.259v.46337l-36.63467.00136Z" transform="translate(-71 -76.05511)" fill="#2f2e41"/><polygon points="105.51 681.321 116.744 683.019 128.64 640.496 113.913 637.99 105.51 681.321" fill="#a0616a"/><path d="M174.19921,753.27486l22.12392,3.34394.00089.00014a14.26,14.26,0,0,1,11.96746,16.23037l-.06927.45817L171.999,767.83236Z" transform="translate(-71 -76.05511)" fill="#2f2e41"/><path d="M242.31541,555.69946l26.42081-5.75457,14.819,42.36073.46337,163.56929-21.5669-.135-9.01546-132.38856L195.9785,745.68079,172.81,742.90058l50.50724-131.13346s-2.78022-23.16846,6.0238-34.75268l-1.85348-12.0476Z" transform="translate(-71 -76.05511)" fill="#2f2e41"/><path d="M217.51223,524.55353a9.81856,9.81856,0,0,1,2.708-10.36336l5.58464-5.07625,15.74427-2.6526,9.84433-1.78923,23.34271,58.2728-45.94922,5.2323c-3.37256-.72815-4.71972-2.573-2.75732-6.24118Z" transform="translate(-71 -76.05511)" fill="#e95316"/><path d="M273.1473,514.90367l-1.31474-12.97446,19.45481-6.36578,34.92326-12.92419a7.46267,7.46267,0,1,1,4.6164,8.8191l-33.65912,16.70108Z" transform="translate(-71 -76.05511)" fill="#a0616a"/><path d="M251.96685,525.15278a10.29679,10.29679,0,0,1-10.80491-2.76157,9.63283,9.63283,0,0,1-2.07395-10.34962,9.17971,9.17971,0,0,1,5.58069-5.34905c11.21318-4.2208,28.52114-7.79363,28.69413-7.82925l.27538-.05645,12.265,15.10349Z" transform="translate(-71 -76.05511)" fill="#e95316"/><circle cx="163.63962" cy="407.54552" r="17.28264" fill="#a0616a"/><path d="M220.64735,508.22175a66.21548,66.21548,0,0,1-8.01794-.48877l-.36475-.04443-2.78381-15.11328A25.4976,25.4976,0,0,1,228.5348,463.1778a2.36915,2.36915,0,0,1,2.35938.73047l.66394-.23144a20.49936,20.49936,0,0,1,26.10632,12.60693l.16455.47217-4.43066,1.54492a9.83732,9.83732,0,0,0-5.19373,14.354l4.53,7.5415-.4823.2417A70.02121,70.02121,0,0,1,220.64735,508.22175Z" transform="translate(-71 -76.05511)" fill="#2f2e41"/><path d="M453,774.94489H72a1,1,0,0,1,0-2H453a1,1,0,0,1,0,2Z" transform="translate(-71 -76.05511)" fill="#cacaca"/><path d="M1128,823.94489H747a1,1,0,0,1,0-2h381a1,1,0,0,1,0,2Z" transform="translate(-71 -76.05511)" fill="#cacaca"/><path d="M921.07015,649.41458a7.53761,7.53761,0,0,0-.00171-11.55807l-5.60389-98.62214L899.476,542.84912l10.5702,96.31776a7.57849,7.57849,0,0,0,11.024,10.2477Z" transform="translate(-71 -76.05511)" fill="#9f616a"/><path d="M985.99283,662.25676a7.53764,7.53764,0,0,1-.41675-11.55056l2.02967-98.76037,16.109,3.03353-7.07615,96.6373a7.57849,7.57849,0,0,1-10.64573,10.6401Z" transform="translate(-71 -76.05511)" fill="#9f616a"/><polygon points="923.517 732.979 936.061 732.978 939.639 703.714 923.515 703.715 923.517 732.979" fill="#9f616a"/><path d="M991.31705,804.93816l24.70439-.001h.001a15.74442,15.74442,0,0,1,15.74358,15.74333v.5116l-40.44822.0015Z" transform="translate(-71 -76.05511)" fill="#2f2e41"/><polygon points="845.24 732.979 857.784 732.978 861.362 684.593 845.238 684.593 845.24 732.979" fill="#9f616a"/><path d="M913.04027,804.93816l24.7044-.001h.001a15.74442,15.74442,0,0,1,15.74357,15.74333v.5116l-40.44822.0015Z" transform="translate(-71 -76.05511)" fill="#2f2e41"/><circle cx="895.77216" cy="400.10925" r="20.52272" fill="#9f616a"/><path d="M992.8555,523.52159s9.1212.7601,9.88132,5.3207,0,18.24243,0,18.24243,6.0808,18.24244,0,22.803-22.043,5.32071-22.043,5.32071Z" transform="translate(-71 -76.05511)" fill="#e4e4e4"/><path d="M915.32517,626.89536l-8.36112,13.68181s3.0404,60.048,3.80048,61.5682a4.57,4.57,0,0,1,.76012,3.0404v8.36112l2.28032,72.96973s-6.0808,3.0404,1.5202,5.32072,17.48231,3.0404,19.00251-4.5606,1.59238-70.92421,1.52024-72.9697l.76008-3.0404,12.16164-44.846,28.12371,62.32822,16.72223,69.92934s25.30824,2.92255,20.74764-6.95877-15.42692-83.49328-15.42692-83.49328-2.28032-7.601-2.28032-9.12123-.76008-2.28032-.76008-3.80052-.76012-6.0808-.76012-6.0808l-5.32071-47.88638Z" transform="translate(-71 -76.05511)" fill="#2f2e41"/><path d="M922.92617,510.59989s-9.1212-.7601-11.40152,6.84091-21.28279,36.48484-17.48231,39.52524,32.68435,13.68182,33.44446,12.92172S922.92617,510.59989,922.92617,510.59989Z" transform="translate(-71 -76.05511)" fill="#e4e4e4"/><path d="M990.671,463.07717c-.86115-3.20612-2.075-6.41086-4.548-8.6256a14.15929,14.15929,0,0,0-9.07313-3.57305,28.16948,28.16948,0,0,0-25.40579-1.44088,4.64859,4.64859,0,0,0-2.02367-2.063q-.36609,3.166-.73233,6.332-1.414-1.06414-2.82821-2.12831-.06981,1.87372-.13947,3.74749-1.29609-1.11431-2.59218-2.22861c-.1841,4.42369,3.49723,8.25372,7.66,9.76173s8.72739,1.22979,13.14994,1.02074c2.184-.10325,4.67144-.0659,6.14558,1.54894,1.54416,1.69172,1.253,4.285,1.29091,6.57519.05339,3.221,3.35995,1.64336,5.01834,4.40513a6.25744,6.25744,0,0,1,1.28653,3.16352,7.39244,7.39244,0,0,1-1.11264,2.93453c-1.22089,2.52153-3.64851,10.3667-2.48963,12.91734q3.21736-1.80054,6.43486-3.6011S994.83971,478.59671,990.671,463.07717Z" transform="translate(-71 -76.05511)" fill="#2f2e41"/><path d="M986.77479,567.60743s15.20166-38.76514,14.4419-41.80554c-.76025-3.04041-19.72607-15.51563-19.72607-15.51563-.72168-.0899-1.40723-.17651-2.09913-.26361a3.45614,3.45614,0,0,0,.208-.833l.32666-2.97547a3.50387,3.50387,0,0,0-3.10107-3.86426l-24.1001-2.64215a3.50336,3.50336,0,0,0-3.86426,3.10071l-.28222,2.57361c-1.27149-.31506-1.32911-.43927-1.32911-.43927s-21.28271,3.37671-26.60351,4.89691c-5.3208,1.52026-.76026,59.2879-.76026,59.2879s-3.80029,53.2071-6.08056,54.7273,0,.76013-2.28028,6.84094c-.30078.80194,3.89893-3.67621,5.70069-2.6604,11.85986,6.68652,59.95215,22.32275,71.82959,21.6629,3.79687-39.62884-3.80078-52.447-3.80078-52.447Z" transform="translate(-71 -76.05511)" fill="#e4e4e4"/></svg>