<svg width="472" height="472" viewBox="0 0 472 472" fill="none" xmlns="http://www.w3.org/2000/svg">
<mask id="mask0_2727_3945" style="mask-type:alpha" maskUnits="userSpaceOnUse" x="0" y="0" width="472" height="472">
<circle cx="236.175" cy="236.435" r="235.5" fill="#D9D9D9"/>
</mask>
<g mask="url(#mask0_2727_3945)">
<path d="M-17.7121 -14.0652C-5.53012 32.8591 20.1495 78.4105 -8.08835 122.425C-30.9905 158.12 -38.0804 165.579 -23.5351 204.512C-4.1901 256.272 1.60852 311.352 -16.031 363.378C-22.4875 382.455 -33.8654 406.758 -33.3051 426.9C-32.7203 447.658 -18.6867 464.993 -17.7121 485.935" stroke="#9E9E9E" stroke-width="2" stroke-miterlimit="10"/>
<path d="M1.26102 -14.0652C12.7845 27.9635 43.2697 85.8528 17.7906 125.832C-1.47816 156.119 -14.749 160.976 -6.46063 196.242C5.724 248.189 21.1201 307.287 3.43347 358.558C-3.03666 377.308 -14.9379 399.541 -15.3157 419.48C-15.7172 440.504 -2.96582 465.341 1.21379 485.935" stroke="#9E9E9E" stroke-width="2" stroke-miterlimit="10"/>
<path d="M19.8902 -14.0652C30.3402 23.8446 66.8666 97.943 42.3866 133.988C24.8733 159.828 10.6255 161.14 10.2385 191.632C9.53699 245.033 42.2173 301.037 22.7688 352.718C15.9473 370.853 2.06237 390.484 0.780319 409.849C-0.743633 433.373 14.6894 463.127 19.8902 485.935" stroke="#9E9E9E" stroke-width="2" stroke-miterlimit="10"/>
<path d="M39.1537 -14.0652C47.9081 21.611 86.9919 111.877 65.1059 145.382C51.8547 165.545 33.7479 166.591 28.3183 190.279C16.3587 242.041 61.9964 297.267 42.6698 346.345C35.7811 363.722 20.1619 380.033 18.0092 398.886C14.9954 424.91 33.1978 460.75 39.2493 485.935" stroke="#9E9E9E" stroke-width="2" stroke-miterlimit="10"/>
<path d="M57.5314 -14.0652C65.1531 23.3308 71.5676 60.9112 79.6154 98.2253C83.6866 117.097 96.3499 142.752 85.1777 158.448C74.408 173.427 54.8331 175.476 46.2646 191.869C21.2457 239.674 78.3135 294.324 61.3896 339.916C55.2591 356.493 37.4358 369.218 34.3587 387.578C29.6248 415.794 50.7856 458.682 57.5078 485.935" stroke="#9E9E9E" stroke-width="2" stroke-miterlimit="10"/>
<path d="M76.506 -14.0652C82.9597 26.5906 87.634 67.5536 95.4876 108.025C98.7382 124.972 114.113 158.455 104.622 171.693C95.6774 184.132 75.2247 184.541 65.6865 195.955C31.1637 237.328 90.8608 293.086 80.9192 333.886C77.4313 348.23 55.555 360.279 51.8536 376.734C45.0914 406.754 69.3167 456.836 76.5534 485.935" stroke="#9E9E9E" stroke-width="2" stroke-miterlimit="10"/>
<path d="M95.2987 -14.0652C100.007 29.4594 102.902 73.2709 109.659 116.611C112.013 131.591 129.033 172.595 121.971 183.558C114.155 195.689 95.9107 193.168 86.1176 202.205C71.9929 215.177 73.6643 242.349 76.0655 259.254C79.0082 280.033 104.315 307.923 100.007 328.783C97.6528 340.218 74.2764 353.23 70.4157 367.369C61.7525 398.845 87.8597 455.197 95.2987 485.935" stroke="#9E9E9E" stroke-width="2" stroke-miterlimit="10"/>
<path d="M114.336 -14.0652C116.905 31.5253 117.481 77.4642 123.244 122.891C124.972 136.681 143.795 182.722 138.85 192.557C132.103 205.855 119.234 201.88 108.094 210.302C91.8876 222.432 89.3186 244.192 91.2874 261.937C93.4962 281.157 121.923 306.913 119.378 325.087C118.202 333.591 93.7123 349.04 90.0869 360.371C79.4989 393.36 106.749 453.54 114.312 485.935" stroke="#9E9E9E" stroke-width="2" stroke-miterlimit="10"/>
<path d="M133.089 -14.0652C132.874 32.4512 130.699 79.3569 135.048 125.791C136.744 145.197 155.858 180.607 153.469 197.103C150.888 215.402 146.301 208.476 131.583 219.767C115.098 232.39 106.472 246.222 107.81 266.099C109.196 287.164 139.133 305.504 138.345 323.25C138.058 329.992 115.193 347.841 112.063 356.632C100.117 391.304 125.873 451.591 133.041 485.935" stroke="#9E9E9E" stroke-width="2" stroke-miterlimit="10"/>
<path d="M151.599 -14.0652C150.733 31.7787 148.277 77.9915 151.903 123.794C153.799 147.669 168.961 173.696 169.617 195.972C170.225 216.323 166.224 212.9 151.178 226.118C136.132 239.337 125.86 249.788 126.726 269.77C127.709 292.456 156.794 305.449 156.981 323.688C156.981 329.672 135.922 348.813 133.418 357.01C122.467 392.607 145.469 450.543 151.903 485.935" stroke="#9E9E9E" stroke-width="2" stroke-miterlimit="10"/>
<path d="M170.344 -14.0652C169.937 30.566 168.113 75.484 171.856 120.054C173.872 143.927 188.126 169.685 188.654 192.41C189.038 212.472 184.262 212.779 170.176 227.144C156.474 241.119 146.012 251.55 146.708 271.201C147.548 294.705 176.512 306.263 176.968 325.279C177.135 331.181 156.45 350.935 154.171 359.562C144.716 395.545 166.169 450.177 172.168 485.935" stroke="#9E9E9E" stroke-width="2" stroke-miterlimit="10"/>
<path d="M188.582 -14.0652C188.582 28.9676 187.194 72.5332 191.381 115.525C193.774 138.988 206.505 164.705 206.672 187.246C206.816 206.55 201.886 209.5 189.539 224.521C177.191 239.541 167.213 251.324 167.692 270.955C168.29 295.545 196.143 307.164 196.646 327.615C196.813 334.439 177.502 353.824 175.588 363.578C168.194 399.746 187.122 450.074 192.602 485.935" stroke="#9E9E9E" stroke-width="2" stroke-miterlimit="10"/>
<path d="M205.848 -14.0652C206.39 27.301 205.683 69.036 209.809 110.3C212.167 133.308 223.699 158.427 223.675 180.8C223.675 198.953 218.959 203.747 208.701 218.95C197.5 235.525 188.421 249.334 188.68 269.331C189.011 295.351 215.422 308.259 215.728 330.796C215.728 339.217 198.467 357.431 196.863 368.925C191.699 404.739 207.852 450.387 212.733 485.935" stroke="#9E9E9E" stroke-width="2" stroke-miterlimit="10"/>
<path d="M223.416 -14.0652C224.412 25.4225 224.412 65.1766 228.66 104.541C231.088 126.959 241.843 151.324 241.673 173.291C241.527 189.992 237.255 196.14 228.757 211.017C218.318 229.295 209.651 245.853 209.675 266.632C209.675 294.316 235.846 309.664 235.822 334.48C235.822 344.869 219.532 361.775 218.367 375.115C215.259 410.115 229.437 451.181 233.88 485.935" stroke="#9E9E9E" stroke-width="2" stroke-miterlimit="10"/>
<path d="M241.157 -14.0652C242.464 23.3672 243.153 60.9635 247.24 98.2729C249.616 119.991 258.931 143.45 258.67 164.86C258.503 179.919 255.153 187.09 248.785 201.268C239.684 221.47 231.819 240.913 231.676 262.918C231.463 292.585 255.961 311.312 255.438 338.725C255.248 351.182 240.73 366.631 240.278 381.997C239.256 415.618 250.971 452.477 254.749 485.935" stroke="#9E9E9E" stroke-width="2" stroke-miterlimit="10"/>
<path d="M258.567 -14.0652C260.97 41.6725 275.843 100.566 275.507 155.853C275.507 169.316 272.984 177.226 268.299 190.402C260.49 212.8 252.993 235.033 252.681 258.66C252.248 289.89 276.708 313.824 275.17 343.332C274.402 358.168 261.162 371.57 261.619 389.193C262.436 421.078 272.407 454.132 275.675 485.935" stroke="#9E9E9E" stroke-width="2" stroke-miterlimit="10"/>
<path d="M277.128 -14.0652C280.086 48.5987 300.706 117.185 288.101 178.988C282.999 204.009 275.124 228.271 274.681 253.927C274.215 281.242 300.17 322.287 295.114 348.291C291.549 366.468 281.857 375.996 283.465 396.509C285.795 426.406 294.019 455.935 296.675 485.935" stroke="#9E9E9E" stroke-width="2" stroke-miterlimit="10"/>
<path d="M294.855 -14.0652C297.891 45.825 314.443 107.928 306.926 167.634C303.523 194.823 295.32 221.459 294.684 248.976C294.121 278.399 321.397 325.196 315.08 353.472C310.672 373.08 301.001 381.747 303.988 403.609C307.808 431.597 315.324 457.66 317.675 485.935" stroke="#9E9E9E" stroke-width="2" stroke-miterlimit="10"/>
<path d="M313.675 -14.0652C316.148 42.9225 326.504 101.119 324.308 157.041C323.152 186.16 315.432 214.931 314.923 244.152C314.369 275.361 340.651 328.865 333.624 358.742C328.723 379.541 319.57 387.123 323.777 410.218C328.562 436.55 334.803 459.07 336.675 485.935" stroke="#9E9E9E" stroke-width="2" stroke-miterlimit="10"/>
<path d="M331.675 -14.0652C334.065 39.7104 345.301 93.7113 342.169 146.647C340.352 177.376 332.273 207.838 331.962 238.834C331.603 274.5 360.647 329.34 352.281 363.798C347.141 384.98 338.631 393.236 342.982 416.283C347.619 440.866 353.978 460.696 355.675 485.935" stroke="#9E9E9E" stroke-width="2" stroke-miterlimit="10"/>
<path d="M348.235 -14.0652C352.762 38.0412 376.158 85.7217 362.53 137.172C354.072 169.362 347.211 201.122 346.687 234.193C345.948 279.907 380.757 323.141 372.37 368.649C368.749 388.279 361.125 401.188 363.293 421.924C365.675 443.848 370.035 463.724 370.869 485.935" stroke="#9E9E9E" stroke-width="2" stroke-miterlimit="10"/>
<path d="M364.015 -14.0652C368.677 20.0155 397.489 60.2442 395.694 94.3044C394.971 108.178 388.328 117.79 382.5 131.193C368.684 163.563 361.976 197.944 362.733 232.512C363.339 282.844 403.223 322.807 395.74 373.446C390.099 411.769 385.437 446.772 384.085 485.935" stroke="#9E9E9E" stroke-width="2" stroke-miterlimit="10"/>
<path d="M377.497 -14.0652C382.296 10.9133 391.246 26.9167 403.099 48.9445C410.105 61.9563 422.583 74.6607 421.623 89.824C420.639 105.377 409.625 114.413 400.819 128.449C380.616 160.743 375.337 196.787 376.945 232.953C379.344 285.451 427.693 324.753 420.807 377.681C416.008 413.848 400.052 449.174 395.133 485.935" stroke="#9E9E9E" stroke-width="2" stroke-miterlimit="10"/>
<path d="M392.156 -14.0652C397.633 11.7955 406.04 26.0373 421.726 47.2258C430.398 58.9676 449.975 76.2832 447.453 92.1848C445.387 105.115 432.752 113.045 423.744 123.23C392.204 158.804 381.803 212.185 395.735 255.218C408.346 294.152 442.024 327.82 443.921 368.107C445.819 408.394 415.649 445.976 406.593 485.935" stroke="#9E9E9E" stroke-width="2" stroke-miterlimit="10"/>
<path d="M408.469 -14.0652C414.534 14.5004 423.072 27.5947 441.766 49.7463C450.661 60.3611 473.945 78.4348 471.496 94.152C469.117 109.582 453.682 114.869 442.242 125.402C405.306 159.357 394.675 213.517 411.323 257.677C425.926 296.201 465.145 330.197 468.095 370.709C471.186 413.353 431.634 444.603 419.814 485.935" stroke="#9E9E9E" stroke-width="2" stroke-miterlimit="10"/>
<path d="M426.058 -14.0652C432.137 16.5098 440.788 30.1374 461.14 53.5605C469.815 63.561 496.607 83.5823 494.564 98.9722C492.161 116.678 473.875 119.772 460.155 129.978C418.705 160.717 407.94 215.862 426.322 259.204C442.422 297.177 486.395 331.113 490.792 371.319C495.598 415.584 448.453 443.044 434.925 485.935" stroke="#9E9E9E" stroke-width="2" stroke-miterlimit="10"/>
<path d="M445.152 -14.0652C451.019 14.6233 459.412 34.275 479.611 57.2258C488.437 67.2668 517.197 91.1192 516.668 106.181C516.019 125.259 492.116 126.775 478.385 136.324C439.573 163.332 430.411 219.849 445.681 258.107C460.951 296.365 504.596 329.603 510.608 369.132C517.822 416.55 467.131 441.939 450.49 485.935" stroke="#9E9E9E" stroke-width="2" stroke-miterlimit="10"/>
<path d="M464.996 -14.0652C470.6 14.6222 479.173 37.1622 497.564 61.3006C505.443 71.669 537.699 99.6802 537.675 114.352C537.675 135.314 511.812 135.252 497.205 145.088C461.979 168.899 451.035 220.392 463.847 255.227C477.952 293.566 518.925 324.773 527.186 363.829C538.154 416.184 485.615 439.646 466.122 485.935" stroke="#9E9E9E" stroke-width="2" stroke-miterlimit="10"/>
</g>
</svg>
