  <svg width="249" height="151" viewBox="0 0 249 151" fill="var(--sl-color-white)" xmlns="http://www.w3.org/2000/svg">
    <path d="M0 123.724H9.22726C14.7636 123.724 17.5873 126.912 17.5873 131.585C17.5873 135.324 15.8525 138.238 12.2723 139.099L18.3808 150.397H13.5918L8.05541 139.85H4.36453V150.397H0V123.724ZM8.48908 136.442C11.6173 136.442 13.232 134.948 13.232 131.805C13.232 129.056 11.8386 127.224 8.68291 127.224H4.45687V136.387L8.48908 136.442Z"  fill="currentColor"/>
    <path d="M27.4142 142.352V132.034C27.4142 126.308 31.5204 123.247 36.8353 123.247C42.1502 123.247 46.3209 125.804 46.3209 131.732V142.059C46.3209 148.005 42.058 150.846 36.863 150.846C31.6681 150.846 27.405 148.335 27.405 142.352H27.4142ZM41.8365 142.205V131.659C41.8365 128.662 39.8433 126.912 36.7523 126.912C33.6611 126.912 31.8526 128.965 31.8526 131.998V142.205C31.8526 145.229 33.6981 147.144 36.8999 147.144C37.5638 147.193 38.2305 147.098 38.8541 146.866C39.4776 146.634 40.0433 146.272 40.5124 145.802C40.9813 145.333 41.3426 144.769 41.571 144.148C41.7997 143.527 41.8902 142.864 41.8365 142.205Z"  fill="currentColor"/>
    <path d="M56.0093 142.352V132.034C56.0093 126.308 60.1152 123.247 65.4305 123.247C70.7459 123.247 74.9261 125.804 74.9261 131.732V142.059C74.9261 148.005 70.6716 150.846 65.4764 150.846C60.2812 150.846 56.0188 148.335 56.0188 142.352H56.0093ZM70.4502 142.205V131.659C70.4502 128.662 68.4487 126.912 65.3657 126.912C62.2843 126.912 60.4661 128.965 60.4661 131.998V142.205C60.4661 145.229 62.3112 147.144 65.5143 147.144C66.1783 147.193 66.8439 147.098 67.4684 146.866C68.0914 146.634 68.6574 146.272 69.1253 145.802C69.5949 145.333 69.957 144.769 70.1846 144.148C70.4139 143.527 70.504 142.864 70.4502 142.205Z"  fill="currentColor"/>
    <path d="M90.0312 127.325H82.6858V123.724H101.74V127.325H94.4691V150.397H90.0312V127.325Z"  fill="currentColor"/>
    <path d="M108.55 147.74L110.801 144.597C112.839 146.283 115.419 147.187 118.072 147.144C120.6 147.144 122.483 145.65 122.483 143.552C122.483 141.234 120.711 140.144 118.681 139.328L114.907 137.825C111.52 136.478 109.824 134.05 109.824 130.797C109.824 126.683 112.987 123.284 118.303 123.284C121.112 123.159 123.871 124.055 126.062 125.804L123.765 128.946C121.764 127.526 120.222 126.775 118.072 126.775C115.7 126.775 113.966 127.902 113.966 130.183C113.966 132.016 115.101 133.061 117.398 134.032L120.932 135.526C124.744 137.138 126.885 139.493 126.885 142.783C126.885 147.758 122.704 150.828 117.658 150.828C114.323 150.978 111.055 149.868 108.513 147.721"  fill="currentColor"/>
    <path d="M140.873 127.325H133.528V123.724H152.582V127.325H145.311V150.397H140.873V127.325Z"  fill="currentColor"/>
    <path d="M161.496 123.724H170.723C176.259 123.724 179.083 126.912 179.083 131.585C179.083 135.324 177.349 138.238 173.768 139.099L179.877 150.397H175.088L169.551 139.85H165.859V150.397H161.412L161.496 123.724ZM169.967 136.442C173.094 136.442 174.71 134.948 174.71 131.805C174.71 129.056 173.316 127.224 170.15 127.224H165.934V136.387L169.967 136.442Z"  fill="currentColor"/>
    <path d="M194.881 123.65H200.149L208.066 150.397H203.619L201.625 143.213H193.034L191.042 150.36H186.936L194.881 123.65ZM200.639 139.851L197.363 128.03H197.288L193.957 139.851H200.639Z"  fill="currentColor"/>
    <path d="M216.574 123.733H225.875C231.253 123.733 233.819 127.325 233.819 131.805C233.819 136.707 231.051 140.409 225.459 140.409H221.012V150.397H216.574V123.733ZM224.593 137.01C227.72 137.01 229.483 135.177 229.483 131.952C229.483 129.267 227.979 127.242 225.118 127.242H221.012V137.01H224.593Z" fill="currentColor" />
    <path d="M214.79 0L150.956 63.4364C144.612 46.6878 132.601 32.6553 116.984 23.7455C101.367 14.8358 83.1167 11.6045 65.3638 14.6057C47.611 17.607 31.4623 26.6538 19.6883 40.1942C7.91421 53.7349 1.24852 70.925 0.834717 88.8156H27.9409C28.4327 76.1365 33.7391 64.1133 42.7922 55.1661C51.845 46.2186 63.9726 41.0114 76.7339 40.5923C89.4949 40.1731 101.942 44.5734 111.57 52.9069C121.197 61.2409 127.291 72.8892 128.624 85.5083L128.359 85.8198H128.697C128.697 86.8506 128.866 88.6956 128.89 88.6956H163.207L233.794 18.7649L214.79 0Z" fill="currentColor"/>
    <path d="M242.367 116.229C243.487 116.229 244.48 116.481 245.345 116.985C246.23 117.488 246.918 118.185 247.409 119.076C247.92 119.967 248.176 120.964 248.176 122.068C248.176 123.172 247.92 124.169 247.409 125.06C246.918 125.931 246.23 126.619 245.345 127.122C244.48 127.626 243.487 127.877 242.367 127.877C241.246 127.877 240.243 127.626 239.359 127.122C238.474 126.619 237.776 125.931 237.265 125.06C236.774 124.169 236.528 123.172 236.528 122.068C236.528 120.964 236.774 119.967 237.265 119.076C237.776 118.185 238.474 117.488 239.359 116.985C240.243 116.481 241.246 116.229 242.367 116.229ZM242.367 126.919C243.782 126.919 244.922 126.464 245.787 125.554C246.672 124.644 247.114 123.482 247.114 122.068C247.114 120.654 246.672 119.492 245.787 118.582C244.922 117.672 243.782 117.217 242.367 117.217C240.931 117.217 239.772 117.672 238.887 118.582C238.022 119.492 237.589 120.654 237.589 122.068C237.589 123.482 238.022 124.644 238.887 125.554C239.772 126.464 240.931 126.919 242.367 126.919ZM244.932 120.79C244.932 121.274 244.794 121.681 244.519 122.01C244.244 122.32 243.861 122.523 243.369 122.62L245.138 125.118L243.635 125.147L242.013 122.678H241.334V125.147H240.066V118.902H242.809C243.458 118.902 243.969 119.076 244.342 119.425C244.735 119.754 244.932 120.209 244.932 120.79ZM241.334 121.632H242.72C242.996 121.632 243.222 121.564 243.399 121.429C243.576 121.293 243.664 121.09 243.664 120.819C243.664 120.548 243.576 120.354 243.399 120.238C243.222 120.102 242.996 120.035 242.72 120.035H241.334V121.632Z"  fill="currentColor"/>
    </svg>