<svg width="150" height="57" viewBox="0 0 150 57" fill="none" xmlns="http://www.w3.org/2000/svg">
<path d="M137.764 0L96.6616 40.7121C92.5768 29.9632 84.8433 20.9575 74.7874 15.2394C64.7318 9.52133 52.9806 7.4475 41.5497 9.37363C30.1188 11.2998 19.7208 17.1059 12.1396 25.7958C4.55842 34.4859 0.266443 45.5182 0 57H17.4534C17.7701 48.8628 21.1868 41.1466 27.016 35.4045C32.8451 29.6621 40.6538 26.3203 48.8708 26.0513C57.0874 25.7822 65.1019 28.6063 71.3013 33.9546C77.5004 39.3031 81.4242 46.7788 82.2825 54.8774L82.1117 55.0774H82.3291C82.3291 55.7389 82.4379 56.923 82.4533 56.923H104.55L150 12.0429L137.764 0Z" fill="white"/>
<path d="M144.514 46C145.572 46 146.51 46.2377 147.327 46.7132C148.162 47.1887 148.812 47.847 149.276 48.6883C149.759 49.5295 150 50.4713 150 51.5137C150 52.5561 149.759 53.4979 149.276 54.3392C148.812 55.1621 148.162 55.8113 147.327 56.2868C146.51 56.7623 145.572 57 144.514 57C143.456 57 142.509 56.7623 141.673 56.2868C140.838 55.8113 140.179 55.1621 139.696 54.3392C139.232 53.4979 139 52.5561 139 51.5137C139 50.4713 139.232 49.5295 139.696 48.6883C140.179 47.847 140.838 47.1887 141.673 46.7132C142.509 46.2377 143.456 46 144.514 46ZM144.514 56.0948C145.851 56.0948 146.927 55.665 147.744 54.8055C148.58 53.946 148.997 52.8487 148.997 51.5137C148.997 50.1787 148.58 49.0815 147.744 48.2219C146.927 47.3624 145.851 46.9327 144.514 46.9327C143.159 46.9327 142.063 47.3624 141.228 48.2219C140.411 49.0815 140.003 50.1787 140.003 51.5137C140.003 52.8487 140.411 53.946 141.228 54.8055C142.063 55.665 143.159 56.0948 144.514 56.0948ZM146.937 50.3067C146.937 50.7639 146.807 51.148 146.547 51.4589C146.287 51.7515 145.925 51.9435 145.461 52.0349L147.132 54.394L145.711 54.4214L144.18 52.0898H143.539V54.4214H142.342V48.5237H144.932C145.544 48.5237 146.027 48.6883 146.38 49.0175C146.751 49.3283 146.937 49.7581 146.937 50.3067ZM143.539 51.1022H144.848C145.108 51.1022 145.322 51.0382 145.489 50.9102C145.656 50.7822 145.739 50.5902 145.739 50.3342C145.739 50.0781 145.656 49.8953 145.489 49.7855C145.322 49.6575 145.108 49.5935 144.848 49.5935H143.539V51.1022Z" fill="white"/>
</svg>
